<?xml version="1.0" encoding="utf-8"?>
<!-- Generator: Adobe Illustrator 26.0.2, SVG Export Plug-In . SVG Version: 6.00 Build 0)  -->
<svg version="1.1" id="Layer_1" xmlns="http://www.w3.org/2000/svg" xmlns:xlink="http://www.w3.org/1999/xlink" x="0px" y="0px"
	 viewBox="0 0 174.2 28.4" style="enable-background:new 0 0 174.2 28.4;" xml:space="preserve">
<style type="text/css">
	.st0{enable-background:new    ;}
</style>
<g id="Layer_2_00000032630003719725874750000005920950149219680694_">
	<g id="Layer_1-2">
		<g class="st0">
			<path d="M1.9,3.3h3.2l5.6,13.6h0.2l5.6-13.6h3.2v17.5h-2.5V8.1H17l-5.1,12.6H9.7L4.6,8.1H4.4v12.6H1.9V3.3z"/>
		</g>
		<g class="st0">
			<path d="M27.1,21c-0.8,0-1.6-0.2-2.2-0.5c-0.7-0.3-1.2-0.8-1.6-1.4s-0.6-1.3-0.6-2.2c0-0.7,0.1-1.3,0.4-1.8
				c0.3-0.5,0.7-0.9,1.2-1.1s1-0.5,1.6-0.6c0.6-0.1,1.2-0.2,1.8-0.3c0.8-0.1,1.4-0.2,1.9-0.2s0.8-0.2,1.1-0.3
				c0.2-0.1,0.3-0.4,0.3-0.7v-0.1c0-0.7-0.2-1.3-0.6-1.7s-1-0.6-1.9-0.6c-0.9,0-1.5,0.2-2,0.6c-0.5,0.4-0.8,0.8-1,1.3L23,10.8
				c0.3-0.8,0.7-1.4,1.2-1.9s1.2-0.8,1.9-1.1s1.5-0.3,2.3-0.3c0.5,0,1.1,0.1,1.7,0.2c0.6,0.1,1.1,0.3,1.7,0.7
				c0.5,0.3,0.9,0.8,1.3,1.4c0.3,0.6,0.5,1.4,0.5,2.3v8.7H31v-1.8h-0.1c-0.2,0.3-0.4,0.7-0.7,1s-0.8,0.6-1.3,0.8
				C28.4,20.9,27.8,21,27.1,21z M27.6,19c0.7,0,1.3-0.1,1.8-0.4s0.9-0.6,1.2-1.1C30.9,17,31,16.5,31,16v-1.7
				c-0.1,0.1-0.3,0.2-0.5,0.3c-0.3,0.1-0.6,0.1-0.9,0.2c-0.3,0.1-0.7,0.1-1,0.1C28.3,15,28,15,27.8,15c-0.5,0.1-0.9,0.2-1.4,0.3
				c-0.4,0.1-0.7,0.4-1,0.6c-0.2,0.3-0.4,0.6-0.4,1.1c0,0.6,0.2,1.1,0.7,1.4S26.9,19,27.6,19z"/>
		</g>
		<g class="st0">
			<path d="M39.4,13v7.8h-2.5V7.6h2.4v2.1h0.2c0.3-0.7,0.8-1.2,1.4-1.7c0.6-0.4,1.5-0.6,2.4-0.6c0.9,0,1.7,0.2,2.3,0.6
				s1.2,0.9,1.6,1.7c0.4,0.7,0.6,1.6,0.6,2.7v8.3h-2.5v-8c0-0.9-0.2-1.7-0.7-2.2c-0.5-0.5-1.2-0.8-2-0.8c-0.6,0-1.1,0.1-1.6,0.4
				c-0.5,0.3-0.8,0.6-1.1,1.1S39.4,12.3,39.4,13z"/>
		</g>
		<g class="st0">
			<path d="M56,21c-1.1,0-2-0.3-2.8-0.8c-0.8-0.5-1.5-1.3-1.9-2.3s-0.7-2.2-0.7-3.6c0-1.4,0.2-2.6,0.7-3.6c0.5-1,1.1-1.8,2-2.3
				s1.8-0.8,2.8-0.8c0.8,0,1.5,0.1,2,0.4s0.9,0.6,1.2,0.9c0.3,0.4,0.5,0.7,0.6,0.9h0.2V3.3h2.5v17.5H60v-2h-0.2
				c-0.2,0.3-0.4,0.6-0.7,1c-0.3,0.4-0.7,0.7-1.2,0.9C57.4,20.9,56.8,21,56,21z M56.5,18.8c0.7,0,1.4-0.2,1.9-0.6
				c0.5-0.4,0.9-0.9,1.2-1.6s0.4-1.5,0.4-2.4c0-0.9-0.1-1.7-0.4-2.4s-0.6-1.2-1.2-1.6c-0.5-0.4-1.1-0.6-1.9-0.6
				c-0.8,0-1.4,0.2-1.9,0.6c-0.5,0.4-0.9,0.9-1.2,1.6c-0.3,0.7-0.4,1.5-0.4,2.3c0,0.9,0.1,1.7,0.4,2.4s0.6,1.3,1.2,1.7
				C55.2,18.6,55.8,18.8,56.5,18.8z"/>
		</g>
		<g class="st0">
			<path d="M67.2,5.6c-0.4,0-0.8-0.1-1.1-0.4c-0.3-0.3-0.5-0.7-0.5-1.1c0-0.4,0.2-0.8,0.5-1.1c0.3-0.3,0.7-0.4,1.1-0.4
				s0.8,0.1,1.1,0.4c0.3,0.3,0.5,0.7,0.5,1.1c0,0.4-0.2,0.8-0.5,1.1C68.1,5.5,67.7,5.6,67.2,5.6z M66,20.7V7.6h2.5v13.1H66z"/>
		</g>
		<g class="st0">
		</g>
		<g class="st0">
			<path d="M77,20.7V3.3h6.4c1.2,0,2.3,0.2,3.1,0.6s1.4,1,1.8,1.6c0.4,0.7,0.6,1.5,0.6,2.3c0,0.7-0.1,1.3-0.4,1.8
				c-0.3,0.5-0.6,0.9-1.1,1.2c-0.4,0.3-0.9,0.5-1.5,0.7v0.2c0.6,0,1.1,0.2,1.7,0.6c0.6,0.3,1,0.8,1.4,1.5c0.4,0.6,0.5,1.4,0.5,2.3
				c0,0.9-0.2,1.7-0.6,2.4s-1.1,1.3-1.9,1.7c-0.9,0.4-2,0.6-3.3,0.6H77z M79.6,10.8h3.5c0.6,0,1.1-0.1,1.6-0.3
				c0.5-0.2,0.9-0.5,1.1-1s0.4-0.9,0.4-1.5c0-0.7-0.3-1.3-0.8-1.8c-0.5-0.5-1.3-0.7-2.3-0.7h-3.6V10.8z M79.6,18.5h3.8
				c1.3,0,2.2-0.2,2.7-0.7c0.5-0.5,0.8-1.1,0.8-1.8c0-0.6-0.1-1.1-0.4-1.5s-0.7-0.8-1.2-1.1s-1.1-0.4-1.8-0.4h-3.9V18.5z"/>
		</g>
		<g class="st0">
			<path d="M100.7,15.3V7.6h2.6v13.1h-2.5v-2.3h-0.1c-0.3,0.7-0.8,1.3-1.4,1.7c-0.7,0.5-1.5,0.7-2.5,0.7c-0.8,0-1.6-0.2-2.2-0.6
				c-0.6-0.4-1.2-0.9-1.5-1.7C92.6,18,92.4,17,92.4,16V7.6H95v8c0,0.9,0.2,1.6,0.7,2.1s1.1,0.8,1.9,0.8c0.5,0,1-0.1,1.4-0.4
				c0.5-0.2,0.9-0.6,1.2-1.1C100.6,16.7,100.7,16,100.7,15.3z"/>
		</g>
		<g class="st0">
			<path d="M112.6,7.6v2h-7.2v-2H112.6z M107.4,4.5h2.5v12.4c0,0.5,0.1,0.9,0.2,1.1c0.1,0.2,0.3,0.4,0.6,0.5
				c0.2,0.1,0.5,0.1,0.8,0.1c0.2,0,0.4,0,0.5,0c0.2,0,0.3-0.1,0.4-0.1l0.5,2.1c-0.1,0.1-0.4,0.1-0.6,0.2c-0.3,0.1-0.6,0.1-1,0.1
				c-0.7,0-1.3-0.1-1.9-0.4c-0.6-0.2-1-0.6-1.4-1.2c-0.4-0.5-0.5-1.2-0.5-2V4.5z"/>
		</g>
		<g class="st0">
			<path d="M117.2,25.6c-0.4,0-0.7,0-1-0.1s-0.5-0.1-0.7-0.2l0.6-2.1c0.5,0.1,0.9,0.2,1.2,0.2c0.4,0,0.7-0.2,1-0.4
				c0.3-0.3,0.5-0.7,0.7-1.3l0.3-0.9l-4.8-13.3h2.7l3.3,10.2h0.1L124,7.6h2.7l-5.4,14.8c-0.2,0.7-0.6,1.3-1,1.7
				c-0.4,0.5-0.8,0.8-1.4,1.1C118.5,25.5,117.9,25.6,117.2,25.6z"/>
		</g>
		<g class="st0">
			<path d="M131.5,13v7.8H129V7.6h2.4v2.1h0.2c0.3-0.7,0.8-1.2,1.4-1.7c0.6-0.4,1.5-0.6,2.4-0.6c0.9,0,1.7,0.2,2.3,0.6
				c0.7,0.4,1.2,0.9,1.6,1.7c0.4,0.7,0.6,1.6,0.6,2.7v8.3h-2.5v-8c0-0.9-0.2-1.7-0.7-2.2c-0.5-0.5-1.2-0.8-2-0.8
				c-0.6,0-1.1,0.1-1.6,0.4c-0.5,0.3-0.8,0.6-1.1,1.1C131.7,11.7,131.5,12.3,131.5,13z"/>
		</g>
		<g class="st0">
			<path d="M152.9,10.8l-2.3,0.4c-0.1-0.3-0.2-0.6-0.5-0.8c-0.2-0.3-0.5-0.5-0.8-0.7c-0.4-0.2-0.8-0.3-1.3-0.3
				c-0.7,0-1.3,0.2-1.8,0.5c-0.5,0.3-0.7,0.7-0.7,1.2c0,0.4,0.2,0.8,0.5,1.1c0.3,0.3,0.8,0.5,1.6,0.7l2.1,0.5
				c1.2,0.3,2.1,0.7,2.7,1.3c0.6,0.6,0.9,1.3,0.9,2.3c0,0.8-0.2,1.5-0.7,2.1c-0.5,0.6-1.1,1.1-1.9,1.4c-0.8,0.3-1.7,0.5-2.8,0.5
				c-1.5,0-2.7-0.3-3.6-0.9c-0.9-0.6-1.5-1.5-1.7-2.7l2.5-0.4c0.2,0.6,0.5,1.1,0.9,1.5c0.5,0.3,1.1,0.5,1.9,0.5c0.8,0,1.5-0.2,2-0.5
				c0.5-0.3,0.8-0.8,0.8-1.3c0-0.4-0.2-0.8-0.5-1s-0.8-0.5-1.4-0.6l-2.2-0.5c-1.2-0.3-2.1-0.7-2.7-1.3c-0.6-0.6-0.9-1.4-0.9-2.3
				c0-0.8,0.2-1.4,0.6-2c0.4-0.6,1-1,1.8-1.4c0.8-0.3,1.6-0.5,2.6-0.5c1.4,0,2.5,0.3,3.3,0.9C152.1,9,152.6,9.8,152.9,10.8z"/>
		</g>
		<g class="st0">
			<path d="M155.8,20.7V3.3h2.5v17.5H155.8z M158.2,16.3l0-3.1h0.4l5.2-5.5h3.1l-5.9,6.3h-0.4L158.2,16.3z M164.1,20.7l-4.7-6.2
				l1.8-1.8l6.1,8H164.1z"/>
		</g>
		<g class="st0">
			<path d="M170.5,5.6c-0.4,0-0.8-0.1-1.1-0.4c-0.3-0.3-0.5-0.7-0.5-1.1c0-0.4,0.2-0.8,0.5-1.1c0.3-0.3,0.7-0.4,1.1-0.4
				s0.8,0.1,1.1,0.4c0.3,0.3,0.5,0.7,0.5,1.1c0,0.4-0.2,0.8-0.5,1.1C171.3,5.5,171,5.6,170.5,5.6z M169.2,20.7V7.6h2.5v13.1H169.2z"
				/>
		</g>
	</g>
</g>
</svg>
