<svg id="Layer_1" data-name="Layer 1" xmlns="http://www.w3.org/2000/svg" viewBox="0 0 79 79"><defs><style>.cls-1{fill:none;stroke:#0e0e0e;}</style></defs><path class="cls-1" d="M5.79,20,39.5.58,73.21,20V59L39.5,78.42,5.79,59Z" transform="translate(0 0)"/><path class="cls-1" d="M20,73.21.58,39.5,20,5.79H59L78.42,39.5,59,73.21Z" transform="translate(0 0)"/><path d="M22.7,31.71h2.53L31.16,46.2h.2l5.93-14.49h2.53V49.16h-2V35.9h-.17L32.22,49.16H30.31L24.85,35.9h-.17V49.16h-2Z" transform="translate(0 0)"/><path d="M44,49.16V31.71h6.11a6.52,6.52,0,0,1,3,.62A4.21,4.21,0,0,1,54.92,34a4.71,4.71,0,0,1,.58,2.33,3.82,3.82,0,0,1-.4,1.86,3.08,3.08,0,0,1-1,1.16,4.48,4.48,0,0,1-1.39.63v.17a3.5,3.5,0,0,1,1.61.56,4.1,4.1,0,0,1,1.35,1.47,4.6,4.6,0,0,1,.55,2.34,4.68,4.68,0,0,1-.6,2.36,4.11,4.11,0,0,1-1.88,1.66,7.81,7.81,0,0,1-3.35.61Zm2.12-9.78h3.92A3.88,3.88,0,0,0,51.8,39,3,3,0,0,0,53,38a2.79,2.79,0,0,0,.46-1.61,2.67,2.67,0,0,0-.8-2,3.46,3.46,0,0,0-2.54-.81h-4Zm0,7.91h4.19a4.32,4.32,0,0,0,2.95-.81,2.57,2.57,0,0,0,.87-1.95,3.11,3.11,0,0,0-.45-1.64,3.3,3.3,0,0,0-1.29-1.22,4.11,4.11,0,0,0-2-.45H46.16Z" transform="translate(0 0)"/></svg>