<svg id="Layer_1" data-name="Layer 1" xmlns="http://www.w3.org/2000/svg" viewBox="0 0 150 100"><path d="M27.13,44.53l3,5.18q2.1,3.61,4.21,7.21a4.94,4.94,0,1,1-8.55,5c-1.36-2.35-2.73-4.7-4.06-7.06a.93.93,0,0,1,0-.8c1.56-2.75,3.15-5.47,4.73-8.2C26.68,45.44,26.86,45,27.13,44.53Z"/><path d="M124,50v8.18H120.7V44.41c1.06,0,2.13,0,3.19,0,.15,0,.32.26.44.43,1.61,2.43,3.2,4.87,4.81,7.3a1.34,1.34,0,0,0,.52.51V44.44H133V58.18c-1.06,0-2.09,0-3.11,0-.2,0-.41-.29-.55-.49q-2.37-3.55-4.72-7.13l-.44-.63Z"/><path d="M91.92,53l3,5.16c-1.22,0-2.33,0-3.43,0-.17,0-.38-.27-.49-.46-.71-1.16-1.41-2.32-2.08-3.5a.93.93,0,0,0-1-.56c-.46,0-.91,0-1.45,0v4.49H83.33c0-.24,0-.46,0-.67,0-4.17,0-8.33,0-12.5,0-.62.2-.77.78-.76,1.92,0,3.83,0,5.74,0a4.72,4.72,0,0,1,2.56,8.43Zm-5.38-2.15h2.67a1.58,1.58,0,0,0,1.66-1.57c.11-1.17-.42-2.13-1.35-2.22s-2,0-3,0Z"/><path d="M53.46,58.18c-1.11,0-2.12,0-3.13,0a.75.75,0,0,1-.52-.42c-.23-.52-.35-1.08-.58-1.6a.73.73,0,0,0-.54-.4c-1.43,0-2.86,0-4.29,0a.85.85,0,0,0-.57.45,9.66,9.66,0,0,0-.53,1.48c-.11.36-.27.54-.69.52-1,0-1.93,0-3,0,.31-.89.6-1.71.89-2.52,1.3-3.58,2.61-7.16,3.9-10.75.12-.35.26-.54.68-.53,1,0,2,0,3,0a.78.78,0,0,1,.57.36c1.59,4.33,3.16,8.68,4.74,13C53.39,57.89,53.41,58,53.46,58.18ZM46.53,48.11l-1.66,5h3.35Z"/><path d="M95.9,44.4h2.68l.59,0v.73c0,2.35,0,4.69,0,7a7,7,0,0,0,0,.79,2.24,2.24,0,0,0,2.61,2.22,2.27,2.27,0,0,0,2.23-2.5c0-2.5,0-5,0-7.51v-.76h3.3c0,.27,0,.53,0,.78,0,2.46,0,4.92,0,7.37.06,3.89-2.91,6-6.55,5.68-3.2-.33-4.88-2.13-5-5.37-.09-2.72,0-5.44,0-8.16A2.74,2.74,0,0,1,95.9,44.4Z"/><path d="M66.62,53.48c-.52,3-3.56,5-7,4.76a6.57,6.57,0,0,1-6.38-6.58c-.13-3.95,2.15-6.87,5.75-7.37s6.91,1.43,7.7,4.74c-1.18,0-2.33,0-3.48,0-.12,0-.26-.15-.33-.26a3.38,3.38,0,0,0-6.12,1.39c-.29,1.69-.14,3.31,1.37,4.46a3.37,3.37,0,0,0,4.65-.69,1.15,1.15,0,0,1,.77-.42C64.54,53.45,65.58,53.48,66.62,53.48Z"/><path d="M81.54,49c-1.15,0-2.25,0-3.34,0a.72.72,0,0,1-.46-.28,3.16,3.16,0,0,0-3.57-1.36,3.25,3.25,0,0,0-2.57,2.92,4.17,4.17,0,0,0,1.33,4.24,3.35,3.35,0,0,0,4.74-.66,1,1,0,0,1,.59-.39c1.08,0,2.15,0,3.23,0-.19,2.64-3.2,4.81-6.56,4.78a6.6,6.6,0,0,1-6.81-6.44c-.24-4,2.14-7.08,5.79-7.53S80.94,45.83,81.54,49Z"/><path d="M18.59,54.55l-2.35,4.09c-.64,1.1-1.27,2.2-1.92,3.29a4.87,4.87,0,0,1-5.73,2.24,5,5,0,0,1-3.5-4.93,5,5,0,0,1,4-4.69,3.51,3.51,0,0,1,.72-.07l8.51,0A1.81,1.81,0,0,1,18.59,54.55Z"/><path d="M20.06,52c-1.52-2.65-3-5.13-4.38-7.67a4.8,4.8,0,0,1,1.34-6,5,5,0,0,1,6.12,0,4.81,4.81,0,0,1,1.29,6C23.05,46.89,21.57,49.36,20.06,52Z"/><path d="M118.15,55.46v2.66a4.43,4.43,0,0,1-.51.06c-2.44,0-4.88,0-7.32,0-.42,0-.63-.07-.63-.57q0-6.37,0-12.76a3.65,3.65,0,0,1,0-.42h8.36v2.62h-5v2.83h3.16c1.33,0,1.33,0,1.33,1.31v1.2h-4.47v3.06Z"/><path d="M141.67,58.15h-3.39V47.08h-3.64V44.44h10.64c0,.77,0,1.53,0,2.28,0,.13-.32.33-.49.33-1,0-2,0-3.1,0Z"/></svg>