<svg width="141" height="28" viewBox="0 0 141 28" fill="none" xmlns="http://www.w3.org/2000/svg">
<path d="M22.4896 7.92969C23.4896 9.71969 24.4896 11.4197 25.4896 13.1197C26.8896 15.5197 28.2896 17.9297 29.6996 20.3297C30.0279 20.8911 30.2424 21.5117 30.3309 22.156C30.4194 22.8003 30.3801 23.4557 30.2152 24.0848C30.0504 24.7139 29.7633 25.3044 29.3703 25.8226C28.9772 26.3407 28.486 26.7764 27.9246 27.1047C27.3632 27.433 26.7426 27.6475 26.0983 27.736C25.454 27.8245 24.7986 27.7852 24.1695 27.6203C23.5404 27.4555 22.9499 27.1684 22.4317 26.7754C21.9136 26.3823 21.4779 25.8911 21.1496 25.3297C19.7896 22.9897 18.4196 20.6397 17.0896 18.2797C17.0331 18.1521 17.0039 18.0142 17.0039 17.8747C17.0039 17.7352 17.0331 17.5972 17.0896 17.4697C18.6496 14.7297 20.2396 11.9997 21.8196 9.26968C22.0396 8.83968 22.2196 8.43969 22.4896 7.92969Z" fill="black"/>
<path d="M119.36 13.3696V21.5596H116.06V7.80957C117.12 7.80957 118.19 7.80957 119.25 7.80957C119.4 7.80957 119.57 8.07957 119.69 8.24957C121.3 10.6796 122.89 13.1196 124.5 15.5496C124.622 15.7643 124.802 15.9408 125.02 16.0596V7.82956H128.36V21.5696C127.3 21.5696 126.27 21.5696 125.25 21.5696C125.05 21.5696 124.84 21.2796 124.7 21.0696C123.12 18.6962 121.546 16.3229 119.98 13.9496L119.54 13.3196L119.36 13.3696Z" fill="black"/>
<path d="M87.2804 16.4203L90.2804 21.5803C89.0604 21.5803 87.9504 21.5803 86.8504 21.5803C86.6804 21.5803 86.4704 21.3203 86.3604 21.1303C85.6504 19.9703 84.9504 18.8103 84.2804 17.6203C84.2 17.4295 84.0575 17.2714 83.876 17.1715C83.6945 17.0717 83.4847 17.0361 83.2804 17.0703C82.8204 17.0703 82.3704 17.0703 81.8304 17.0703V21.5603H78.6904C78.6904 21.3103 78.6904 21.1003 78.6904 20.8903C78.6904 16.7203 78.6904 12.5603 78.6904 8.39032C78.6904 7.77032 78.8904 7.62034 79.4704 7.63034C81.3904 7.63034 83.3004 7.63034 85.2104 7.63034C86.1692 7.6925 87.0845 8.05264 87.8286 8.66043C88.5726 9.26823 89.1082 10.0933 89.3604 11.0203C89.6366 11.9284 89.6295 12.8992 89.3401 13.8032C89.0507 14.7072 88.4927 15.5015 87.7404 16.0803L87.2804 16.4203ZM81.9004 14.2703C82.8304 14.2703 83.7004 14.2703 84.5704 14.2703C84.7834 14.2797 84.996 14.2462 85.1958 14.1718C85.3955 14.0974 85.5782 13.9835 85.7331 13.8371C85.8879 13.6906 86.0118 13.5145 86.0972 13.3192C86.1827 13.1239 86.228 12.9135 86.2304 12.7003C86.3404 11.5303 85.8104 10.5703 84.8804 10.4803C83.9504 10.3903 82.8804 10.4803 81.8804 10.4803L81.9004 14.2703Z" fill="black"/>
<path d="M48.8197 21.5897C47.7097 21.5897 46.6997 21.5897 45.6897 21.5897C45.5765 21.5647 45.4706 21.5137 45.3803 21.4408C45.2901 21.368 45.218 21.2751 45.1697 21.1697C44.9397 20.6497 44.8197 20.0797 44.5897 19.5597C44.5365 19.457 44.4599 19.3682 44.3661 19.3005C44.2723 19.2328 44.164 19.188 44.0497 19.1697C42.6231 19.1297 41.1931 19.1297 39.7597 19.1697C39.636 19.1944 39.5198 19.2481 39.4207 19.3263C39.3217 19.4045 39.2425 19.505 39.1897 19.6197C38.9731 20.0978 38.7959 20.5928 38.6597 21.0997C38.6487 21.1792 38.6221 21.2557 38.5814 21.3249C38.5407 21.3941 38.4868 21.4546 38.4227 21.5029C38.3586 21.5512 38.2856 21.5864 38.2078 21.6065C38.1301 21.6265 38.0492 21.631 37.9697 21.6197C36.9697 21.6197 36.0397 21.6197 34.9697 21.6197C35.2797 20.7297 35.5697 19.9097 35.8597 19.0997C37.1597 15.5097 38.4697 11.9297 39.7597 8.34971C39.8797 7.99971 40.0197 7.80971 40.4397 7.81971C41.4397 7.81971 42.4397 7.81971 43.4397 7.81971C43.5549 7.83143 43.666 7.86898 43.7647 7.92957C43.8634 7.99017 43.9472 8.07224 44.0097 8.16969C45.5997 12.5097 47.1697 16.8497 48.7497 21.1697C48.7497 21.2997 48.7697 21.3697 48.8197 21.5897ZM41.8897 11.5197L40.2297 16.5197H43.5797L41.8897 11.5197Z" fill="black"/>
<path d="M91.2601 7.7998H93.9401C94.1101 7.7998 94.2801 7.7998 94.5301 7.7998V8.51981C94.5301 10.8731 94.5301 13.2232 94.5301 15.5698C94.5151 15.8296 94.5151 16.09 94.5301 16.3498C94.5288 16.6765 94.5986 16.9995 94.7348 17.2965C94.8709 17.5935 95.0701 17.8572 95.3185 18.0694C95.5669 18.2816 95.8585 18.4372 96.173 18.5254C96.4876 18.6135 96.8176 18.6321 97.1401 18.5798C97.4556 18.5745 97.7667 18.5038 98.0535 18.372C98.3403 18.2403 98.5966 18.0504 98.8062 17.8145C99.0158 17.5785 99.1742 17.3016 99.2712 17.0013C99.3683 16.701 99.402 16.3838 99.3701 16.0698C99.3701 13.5698 99.3701 11.0698 99.3701 8.56982V7.80981H102.67C102.67 8.07981 102.67 8.32981 102.67 8.58981C102.67 11.0498 102.67 13.4998 102.67 15.9598C102.73 19.8498 99.7601 22.0098 96.1201 21.6398C92.9201 21.3098 91.2401 19.5098 91.1201 16.2698C91.0301 13.5498 91.1201 10.8298 91.1201 8.1098C91.1604 8.00374 91.2072 7.90022 91.2601 7.7998V7.7998Z" fill="black"/>
<path d="M61.98 16.8904C61.46 19.8904 58.42 21.8904 54.98 21.6504C53.2698 21.5984 51.6471 20.8823 50.456 19.6539C49.2649 18.4255 48.5992 16.7815 48.6 15.0704C48.47 11.1204 50.75 8.20041 54.35 7.70041C57.95 7.20041 61.26 9.13043 62.05 12.4404C60.87 12.4404 59.72 12.4404 58.57 12.4404C58.45 12.4404 58.31 12.2904 58.24 12.1804C57.8564 11.6246 57.315 11.1964 56.6858 10.9511C56.0565 10.7058 55.3682 10.6547 54.7096 10.8043C54.051 10.9538 53.4523 11.2973 52.9907 11.7903C52.5292 12.2834 52.2259 12.9034 52.12 13.5704C51.83 15.2504 51.98 16.8804 53.49 18.0304C54.2043 18.5402 55.0889 18.7522 55.9567 18.6216C56.8245 18.491 57.6074 18.0279 58.14 17.3304C58.3349 17.1004 58.6104 16.9537 58.91 16.9204C59.9 16.8604 60.94 16.8904 61.98 16.8904Z" fill="black"/>
<path d="M76.9005 12.4496C75.7505 12.4496 74.6505 12.4496 73.5605 12.4496C73.4683 12.4385 73.3795 12.4078 73.3001 12.3595C73.2208 12.3112 73.1527 12.2465 73.1005 12.1696C72.7352 11.5849 72.1881 11.1363 71.5432 10.8924C70.8984 10.6485 70.1913 10.623 69.5305 10.8197C68.8446 10.9606 68.223 11.3206 67.7595 11.8454C67.296 12.3703 67.0155 13.0316 66.9605 13.7296C66.7587 14.4898 66.7765 15.2916 67.0119 16.0421C67.2473 16.7926 67.6907 17.4609 68.2905 17.9697C68.6427 18.2425 69.0458 18.4423 69.4762 18.5574C69.9066 18.6726 70.3556 18.7007 70.797 18.6401C71.2384 18.5796 71.6633 18.4317 72.0468 18.2049C72.4303 17.9782 72.7647 17.6772 73.0305 17.3197C73.0965 17.2174 73.183 17.1299 73.2846 17.0628C73.3861 16.9956 73.5005 16.9503 73.6205 16.9297C74.7005 16.9297 75.7705 16.9297 76.8505 16.9297C76.6605 19.5597 73.6505 21.7397 70.2905 21.7097C69.4199 21.7363 68.5526 21.5906 67.7385 21.2809C66.9244 20.9713 66.1795 20.5038 65.5467 19.9054C64.9138 19.3069 64.4055 18.5893 64.0509 17.7937C63.6963 16.9982 63.5025 16.1404 63.4805 15.2696C63.2405 11.2696 65.6205 8.17965 69.2705 7.73965C72.9205 7.29965 76.3005 9.23964 76.9005 12.4496Z" fill="black"/>
<path d="M13.9505 17.9599L11.6005 22.0499C10.9605 23.1499 10.3305 24.2499 9.68047 25.3399C9.12743 26.3138 8.25562 27.0674 7.2119 27.4735C6.16818 27.8797 5.01636 27.9138 3.95047 27.57C2.90344 27.2519 1.99165 26.5952 1.35818 25.7029C0.724721 24.8106 0.405449 23.7333 0.450475 22.6399C0.497371 21.5237 0.916779 20.4553 1.64178 19.6052C2.36678 18.7552 3.3556 18.1724 4.45047 17.9499C4.68742 17.9019 4.9287 17.8784 5.17048 17.88H13.6805C13.7736 17.8948 13.8643 17.9217 13.9505 17.9599V17.9599Z" fill="black"/>
<path d="M15.4203 15.3698C13.9003 12.7298 12.4203 10.2498 11.0403 7.70978C10.5302 6.71009 10.3849 5.56374 10.6296 4.46841C10.8742 3.37309 11.4934 2.39745 12.3803 1.70978C13.2563 1.03188 14.3327 0.664062 15.4403 0.664062C16.548 0.664062 17.6243 1.03188 18.5003 1.70978C19.3909 2.40669 20.0081 3.39456 20.2439 4.50055C20.4797 5.60653 20.3192 6.76023 19.7903 7.7598C18.4103 10.2898 16.9303 12.7698 15.4203 15.3698Z" fill="black"/>
<path d="M113.51 18.8701V21.5301C113.341 21.5599 113.171 21.58 113 21.5901C110.56 21.5901 108.12 21.5901 105.68 21.5901C105.26 21.5901 105.05 21.5201 105.05 21.0201C105.05 16.7734 105.05 12.5168 105.05 8.25009C105.05 8.13009 105.05 8.00008 105.05 7.83008H113.41V10.4601H108.41V13.2801H111.57C112.9 13.2801 112.9 13.2801 112.9 14.6001V15.8001H108.43V18.8601L113.51 18.8701Z" fill="black"/>
<path d="M137.03 21.5598H133.64V10.4898H130V7.83984H140.64C140.64 8.61984 140.64 9.37985 140.64 10.1299C140.64 10.2499 140.32 10.4498 140.15 10.4598C139.15 10.4598 138.15 10.4598 137.05 10.4598L137.03 21.5598Z" fill="black"/>
</svg>
