<svg width="142" height="68" viewBox="0 0 142 68" fill="none" xmlns="http://www.w3.org/2000/svg">
<path d="M52.2302 14.4695C52.8502 12.8695 52.9402 12.7995 54.4202 12.7995H62.4902C63.1102 12.7995 64.0002 11.5295 63.7202 11.0095C63.6402 10.8595 63.3002 10.7895 63.0802 10.7895C61.3702 10.7895 59.6602 10.7895 57.9502 10.7895H57.1502L57.0102 10.5595C58.6102 9.00953 60.1702 7.40953 61.8202 5.91953C63.4001 4.58614 64.6033 2.8623 65.3102 0.919527C65.4702 0.429527 65.7602 0.329525 66.2402 0.339525C71.3602 0.469525 76.4802 0.57953 81.6102 0.71953C83.6988 0.858691 85.7532 1.32084 87.7002 2.08952C88.2954 2.22183 88.8377 2.52836 89.258 2.97003C89.6783 3.41171 89.9575 3.96852 90.0602 4.56952L82.1902 4.82953L82.1202 5.05953C82.3502 5.19953 82.5702 5.35952 82.8102 5.47952C83.6602 5.89952 84.5002 6.31953 85.3702 6.68953C85.6404 6.77406 85.93 6.77406 86.2002 6.68953C88.1332 6.02215 90.1561 5.65128 92.2002 5.58952C93.8847 5.576 95.5135 6.19189 96.7676 7.31653C98.0218 8.44117 98.8108 9.99353 98.9802 11.6695C99.0302 12.0995 99.0902 12.5295 99.1302 12.9095C96.8902 12.4095 94.7402 11.7895 92.5502 11.4795C90.4161 11.2278 88.2691 11.1009 86.1202 11.0995C84.919 11.0659 83.7173 11.1429 82.5302 11.3295C79.5302 11.8295 78.1302 13.5395 78.1202 16.5795C78.1202 21.4329 78.1202 26.2829 78.1202 31.1295C78.1202 31.5095 78.2502 31.8895 78.2902 32.2795C78.2902 32.8395 78.2102 33.2795 77.5002 33.2795H55.3202L55.1702 33.2295V31.6495H56.1002C62.1002 31.6495 68.0402 31.6495 74.0102 31.6495C74.7002 31.6495 75.2202 31.3895 75.3502 30.7695C75.376 30.5892 75.3583 30.4052 75.2984 30.2332C75.2385 30.0611 75.1383 29.9059 75.0061 29.7805C74.8739 29.6552 74.7135 29.5633 74.5385 29.5127C74.3635 29.4621 74.1789 29.4541 74.0002 29.4895H55.2402L55.0602 27.6395H73.7102C74.8102 27.6395 75.0902 27.2995 74.7102 26.2595C74.6376 26.1189 74.5326 25.9976 74.404 25.9054C74.2754 25.8133 74.1267 25.753 73.9702 25.7295C72.6202 25.6795 71.2802 25.7295 69.9702 25.7295H47.7002V24.3495H68.4102V22.0995H47.8802V20.3695H68.4402V18.3695H48.3602C47.8002 17.1195 48.3602 16.3095 49.7002 16.3095C52.1102 16.3095 54.5202 16.3095 56.9302 16.3095C58.6102 16.3095 60.2902 16.3995 61.9302 16.4295C62.1902 16.4295 62.5702 16.4295 62.7002 16.2495C62.9788 15.8599 63.2199 15.4447 63.4202 15.0095C62.9902 14.8095 62.5702 14.4495 62.1402 14.4495C59.1402 14.4495 56.0802 14.4495 53.0602 14.4495L52.2302 14.4695Z" fill="black"/>
<path d="M80.1196 21.8003V16.5903C80.0645 16.0506 80.1514 15.5059 80.3719 15.0102C80.5924 14.5145 80.9387 14.0851 81.3764 13.7647C81.8141 13.4442 82.3281 13.2438 82.8672 13.1834C83.4063 13.123 83.9518 13.2046 84.4496 13.4203C85.5026 13.7839 86.5285 14.2217 87.5196 14.7303C87.7805 14.9101 88.0946 14.9961 88.4106 14.9743C88.7267 14.9525 89.026 14.8242 89.2596 14.6103C89.7121 14.2201 90.2088 13.8844 90.7396 13.6103C91.4696 13.2503 91.8796 13.4103 92.2296 14.1503C93.2896 16.4203 94.3496 18.7003 95.3996 20.9703C95.7396 21.7203 95.5296 22.1103 94.7096 22.2903C92.9196 22.6803 92.5696 23.1203 92.5696 24.9603V27.7303C92.5968 28.1511 92.5349 28.5729 92.388 28.9682C92.2411 29.3635 92.0126 29.7234 91.7172 30.0244C91.4219 30.3255 91.0664 30.5608 90.6739 30.7152C90.2815 30.8695 89.8609 30.9394 89.4396 30.9203H83.7296C82.8108 30.8357 81.9494 30.4361 81.2915 29.7891C80.6336 29.1421 80.2196 28.2876 80.1196 27.3703C80.1096 25.5003 80.1196 23.6503 80.1196 21.8003Z" fill="black"/>
<path d="M61.4401 51.5195H65.9301L68.9801 61.5195C69.3301 60.3595 69.6701 59.2095 69.9801 58.0695C70.5901 56.0695 71.1901 54.1295 71.8201 52.1695C71.9101 51.9195 72.2101 51.5795 72.4201 51.5695C73.7601 51.5095 75.1001 51.5695 76.4901 51.5695C77.3501 56.9095 78.1901 62.1795 79.0501 67.5695C77.7501 67.5695 76.4901 67.5695 75.2401 67.5695C75.0501 67.5695 74.7601 67.2196 74.7301 67.0096C74.2901 63.9196 73.8801 60.8095 73.4501 57.6495C72.7901 59.8295 72.1501 61.9595 71.5101 64.0895C71.2201 65.0895 70.9201 65.9995 70.6501 66.9695C70.63 67.1591 70.5355 67.3329 70.3874 67.4528C70.2393 67.5728 70.0497 67.6291 69.8601 67.6095C67.4601 67.6095 67.4701 67.6595 66.7701 65.3495C66.0001 62.8395 65.2401 60.3495 64.4201 57.6395L63.0501 67.5495H58.8701C59.7301 62.0895 60.5801 56.8095 61.4401 51.5195Z" fill="black"/>
<path d="M17.16 67.4403H12.66C12.43 66.6703 12.23 65.8803 11.95 65.1303C11.8975 65.0066 11.8168 64.897 11.7144 64.8102C11.6119 64.7234 11.4906 64.6618 11.36 64.6303C9.36 64.6303 7.36 64.6303 5.36 64.6303L4.47 67.4502H0C0.53 65.9202 1.05 64.4503 1.58 62.9403C2.86 59.4003 4.16 55.8703 5.41 52.3203C5.4315 52.1869 5.47979 52.0593 5.55194 51.9452C5.6241 51.831 5.71863 51.7327 5.82983 51.6561C5.94104 51.5794 6.06661 51.5261 6.19897 51.4993C6.33134 51.4726 6.46776 51.4729 6.6 51.5003C8.2 51.5503 9.79 51.5003 11.4 51.5003C13.36 56.8003 15.22 62.0603 17.16 67.4403ZM8.58 54.3002L6.36 61.4303H10.8L8.58 54.3002Z" fill="black"/>
<path d="M57.4396 60.6202C57.4396 65.0302 53.0496 68.3501 48.6296 67.7401C47.511 67.6197 46.4339 67.2488 45.4782 66.655C44.5226 66.0612 43.713 65.2598 43.1096 64.3102C42.1744 62.8571 41.8256 61.1032 42.1337 59.4029C42.4419 57.7026 43.384 56.1826 44.7696 55.1502C45.6761 54.4335 46.7297 53.9257 47.8551 53.6632C48.9804 53.4007 50.1499 53.3899 51.2799 53.6316C52.41 53.8733 53.4727 54.3614 54.3923 55.0613C55.3119 55.7611 56.0656 56.6554 56.5996 57.6802C56.9604 58.6353 57.2414 59.6186 57.4396 60.6202V60.6202ZM45.7996 60.6202C45.9654 61.3984 46.2065 62.1586 46.5196 62.8901C46.9259 63.6027 47.5658 64.1531 48.3311 64.4482C49.0964 64.7434 49.9401 64.7653 50.7196 64.5102C51.5922 64.1911 52.3292 63.5831 52.8085 62.7872C53.2877 61.9914 53.4803 61.0555 53.3541 60.1351C53.228 59.2147 52.7907 58.3651 52.115 57.7275C51.4393 57.0899 50.5658 56.7027 49.6396 56.6302C48.6085 56.6714 47.6332 57.1096 46.9176 57.8532C46.2019 58.5968 45.8014 59.5882 45.7996 60.6202Z" fill="black"/>
<path d="M133.47 53.4502C135.105 53.4243 136.704 53.9272 138.031 54.884C139.357 55.8408 140.339 57.2003 140.83 58.7602C141.78 62.3102 140.1 65.6202 136.54 67.1902C134.803 67.9258 132.86 68.0155 131.062 67.4433C129.265 66.8711 127.732 65.6746 126.74 64.0702C126.203 63.0938 125.904 62.0046 125.866 60.891C125.829 59.7773 126.055 58.6706 126.525 57.6605C126.996 56.6505 127.698 55.7655 128.574 55.0774C129.45 54.3893 130.477 53.9175 131.57 53.7002C132.19 53.5602 132.84 53.5302 133.47 53.4502ZM137.36 60.6702C137.215 59.9446 137 59.2347 136.72 58.5502C136.325 57.7984 135.681 57.2081 134.898 56.8812C134.114 56.5543 133.241 56.5115 132.43 56.7602C131.614 57.0329 130.912 57.5689 130.434 58.2839C129.956 58.9989 129.73 59.8523 129.79 60.7102C129.749 61.2136 129.814 61.72 129.981 62.1967C130.148 62.6734 130.413 63.1099 130.758 63.4782C131.104 63.8464 131.523 64.1383 131.988 64.3349C132.453 64.5316 132.955 64.6288 133.46 64.6202C135.65 64.6302 137.15 63.0702 137.36 60.6702Z" fill="black"/>
<path d="M37.3604 62.0205L41.2004 67.4605C39.7204 67.4605 38.3904 67.4605 37.0704 67.4605C36.8504 67.4605 36.5904 67.1205 36.4404 66.8905C35.5204 65.4005 34.6104 63.8905 33.5704 62.2005V67.3705H29.8604V53.7305C32.3404 53.8205 34.7704 53.7805 37.1804 54.0405C38.038 54.1407 38.8327 54.541 39.4237 55.1705C40.0148 55.8 40.3643 56.6182 40.4104 57.4805C40.5504 59.8605 39.8303 61.0305 37.7104 61.8105C37.5905 61.875 37.4737 61.9451 37.3604 62.0205V62.0205ZM33.5604 56.6705V60.2305C34.6204 60.2305 35.7003 60.4205 36.3703 59.4305C36.5716 59.1233 36.6729 58.7614 36.6603 58.3944C36.6478 58.0274 36.5221 57.6732 36.3004 57.3805C35.6204 56.3705 34.5504 56.7605 33.5604 56.6705Z" fill="black"/>
<path d="M98.1498 62.5398C97.2198 64.1198 96.3198 65.6598 95.3798 67.1698C95.3038 67.2597 95.2087 67.3315 95.1014 67.38C94.9942 67.4284 94.8774 67.4522 94.7598 67.4498C93.4998 67.4498 92.2498 67.4498 90.7598 67.4498C92.5698 65.0098 94.2898 62.6598 96.0598 60.2698L91.3598 53.8198C92.8398 53.8198 94.1998 53.8198 95.5598 53.8198C95.7108 53.8581 95.852 53.9277 95.9744 54.0242C96.0967 54.1207 96.1973 54.2419 96.2698 54.3798C96.9098 55.4798 97.4998 56.6198 98.1598 57.8498C98.7898 56.6698 99.4198 55.5498 99.9998 54.4098C100.078 54.2122 100.217 54.0445 100.397 53.9313C100.577 53.818 100.788 53.7649 101 53.7798C102.23 53.7798 103.47 53.7798 104.9 53.7798L100.21 60.3698L105.48 67.4798C103.96 67.4798 102.58 67.4798 101.21 67.4798C101.05 67.4798 100.86 67.1598 100.74 66.9498C99.8698 65.4498 99.0098 63.9898 98.1498 62.5398Z" fill="black"/>
<path d="M89.9704 67.4399H81.3604V53.8799H89.9903V56.7599H85.0504C85.0111 57.426 85.0111 58.0938 85.0504 58.7599C85.0504 58.8999 85.5003 59.0899 85.7403 59.0999C87.0303 59.0999 88.3104 59.0999 89.6404 59.0999V62.0999H85.0904V64.3699H89.9704V67.4399Z" fill="black"/>
<path d="M22.2996 62.0599V64.3699H27.2296V67.3699H18.5996V53.8799H27.2296V56.7599H22.2996V59.0999H26.9096V62.0999L22.2996 62.0599Z" fill="black"/>
<path d="M124.2 58.2703C121.88 56.3603 119.72 56.2703 118.2 57.8603C117.515 58.6265 117.137 59.6179 117.137 60.6453C117.137 61.6727 117.515 62.6642 118.2 63.4303C119.67 64.9603 121.92 64.8203 124.2 62.9603C124.2 64.2703 124.2 65.4803 124.2 66.6803C124.181 66.7698 124.141 66.8537 124.084 66.9249C124.027 66.9962 123.953 67.0529 123.87 67.0903C119.68 68.9003 114.94 67.1903 113.63 62.8603C113.245 61.7798 113.132 60.6214 113.3 59.487C113.469 58.3525 113.913 57.2768 114.594 56.3543C115.276 55.4319 116.174 54.691 117.208 54.1968C118.243 53.7026 119.384 53.4703 120.53 53.5203C121.631 53.6389 122.721 53.8462 123.79 54.1403C123.894 54.1806 123.986 54.2467 124.058 54.3324C124.13 54.4181 124.178 54.5206 124.2 54.6303C124.22 55.7903 124.2 56.9503 124.2 58.2703Z" fill="black"/>
<path d="M110.69 67.4301H106.89V53.8701H110.69V67.4301Z" fill="black"/>
<path d="M62.1396 36.8497V35.1797H76.8196C76.4352 35.7202 75.9244 36.1585 75.3318 36.4566C74.7393 36.7546 74.0828 36.9033 73.4196 36.8897C69.9896 36.7397 66.5396 36.8897 63.0996 36.8897L62.1396 36.8497Z" fill="black"/>
<path d="M72.1899 39.0996C70.8599 39.8296 69.6499 40.7796 67.9399 40.6396C66.0499 40.4896 64.1299 40.6396 62.1699 40.6396V39.1296L72.1899 39.0996Z" fill="black"/>
</svg>
