<svg id="Layer_1" data-name="Layer 1" xmlns="http://www.w3.org/2000/svg" viewBox="0 0 150 100"><path d="M56.87,27.76c.62-1.6.71-1.66,2.19-1.66h8.07c.62,0,1.51-1.28,1.23-1.79-.08-.15-.42-.23-.64-.23-1.71,0-3.42,0-5.13,0h-.8l-.14-.23c1.6-1.55,3.16-3.15,4.81-4.64a11.87,11.87,0,0,0,3.49-5c.16-.5.45-.6.93-.59,5.12.14,10.24.24,15.37.38a20.25,20.25,0,0,1,6.09,1.37,3.08,3.08,0,0,1,2.36,2.49l-7.87.26-.07.23c.23.14.45.3.69.42.85.41,1.69.84,2.56,1.2a1.32,1.32,0,0,0,.83,0,20.58,20.58,0,0,1,6-1.1,6.76,6.76,0,0,1,6.78,6.08c.05.43.11.86.15,1.25-2.24-.51-4.39-1.13-6.58-1.44a55.2,55.2,0,0,0-6.43-.38,18.74,18.74,0,0,0-3.59.24c-3,.5-4.4,2.2-4.41,5.24q0,7.28,0,14.55a11.39,11.39,0,0,0,.17,1.15c0,.57-.08,1-.79,1l-22.18,0-.15,0V45h.93l17.91,0c.69,0,1.21-.25,1.34-.87a1.14,1.14,0,0,0-1.35-1.29H59.88l-.18-1.84H78.35c1.1,0,1.38-.34,1-1.37a1.06,1.06,0,0,0-.74-.54c-1.35-.05-2.69,0-4,0H52.34V37.6H73.05V35.34H52.52V33.7H73.08v-2H53c-.56-1.24,0-2.06,1.34-2.06,2.41,0,4.82,0,7.23.05,1.68,0,3.36.09,5,.11.26,0,.64,0,.77-.18a7.58,7.58,0,0,0,.72-1.24c-.43-.19-.85-.55-1.28-.56-3-.05-6.06,0-9.08,0Z"/><path d="M84.76,35.1V29.89a3.1,3.1,0,0,1,4.33-3.17A22.3,22.3,0,0,1,92.16,28a1.4,1.4,0,0,0,1.74-.13A7.13,7.13,0,0,1,95.38,27c.73-.37,1.14-.21,1.49.53q1.59,3.41,3.17,6.83c.34.75.13,1.13-.69,1.31-1.79.4-2.14.83-2.14,2.67v2.78a3,3,0,0,1-3.13,3.18c-1.9,0-3.81,0-5.71,0a4,4,0,0,1-3.61-3.62C84.75,38.79,84.76,36.94,84.76,35.1Z"/><path d="M66.08,64.82h4.49l3.05,10c.35-1.16.69-2.3,1-3.44.61-2,1.21-4,1.84-5.91.09-.25.39-.59.6-.6,1.34,0,2.68,0,4.07,0,.86,5.34,1.7,10.62,2.56,16-1.3,0-2.56,0-3.81,0-.19,0-.48-.34-.51-.56-.44-3.09-.85-6.19-1.28-9.35-.66,2.17-1.3,4.3-1.94,6.43-.29,1-.59,1.92-.86,2.88-.12.42-.28.64-.79.64-2.4,0-2.39,0-3.09-2.25-.77-2.52-1.53-5-2.35-7.72l-1.37,9.91H63.51C64.37,75.38,65.22,70.1,66.08,64.82Z"/><path d="M21.8,80.73H17.3c-.23-.77-.43-1.56-.71-2.31a.82.82,0,0,0-.59-.49c-2,0-4,0-6,0l-.89,2.82H4.64c.53-1.53,1.05-3,1.58-4.51C7.5,72.67,8.8,69.14,10.05,65.6a1,1,0,0,1,1.19-.83c1.6.06,3.19,0,4.8,0ZM13.22,67.59,11,74.72h4.44Z"/><path d="M62.08,73.91c0,4.41-4.39,7.73-8.81,7.13a7.52,7.52,0,0,1-5.52-3.43,6.83,6.83,0,0,1,1.66-9.17A7.85,7.85,0,0,1,61.24,71,18.78,18.78,0,0,1,62.08,73.91Zm-11.64,0a12.16,12.16,0,0,0,.72,2.26,3.56,3.56,0,0,0,4.2,1.63A3.77,3.77,0,0,0,58,73.9a3.73,3.73,0,0,0-3.74-4A4,4,0,0,0,50.44,73.92Z"/><path d="M138.11,66.75a7.59,7.59,0,0,1,7.36,5.3c.95,3.55-.73,6.86-4.29,8.43a7.9,7.9,0,0,1-9.8-3.12A7.09,7.09,0,0,1,136.21,67C136.83,66.86,137.48,66.82,138.11,66.75ZM142,74a11.55,11.55,0,0,0-.64-2.12A3.64,3.64,0,0,0,137,70.05a3.9,3.9,0,0,0-2.64,4,3.64,3.64,0,0,0,3.67,3.92C140.29,77.92,141.79,76.36,142,74Z"/><path d="M42,75.31l3.84,5.45c-1.48,0-2.81,0-4.13,0-.22,0-.48-.33-.63-.57-.92-1.48-1.83-3-2.87-4.69v5.22H34.5V67c2.48.09,4.91,0,7.32.31a3.64,3.64,0,0,1,3.23,3.43c.14,2.39-.58,3.55-2.7,4.33C42.25,75.14,42.16,75.21,42,75.31ZM38.2,70v3.56c1.06,0,2.14.18,2.81-.8a1.79,1.79,0,0,0-.07-2.06C40.26,69.69,39.19,70.06,38.2,70Z"/><path d="M102.79,75.83C101.86,77.41,101,79,100,80.47a.82.82,0,0,1-.62.27c-1.26,0-2.51,0-4,0l5.3-7.19L96,67.11c1.48,0,2.84,0,4.2,0a1.11,1.11,0,0,1,.71.56c.64,1.11,1.23,2.25,1.89,3.47.63-1.17,1.26-2.3,1.84-3.44a1,1,0,0,1,1-.63c1.23,0,2.47,0,3.9,0l-4.72,6.53,5.27,7.11c-1.52,0-2.9,0-4.27,0-.16,0-.35-.33-.47-.54C104.51,78.74,103.65,77.28,102.79,75.83Z"/><path d="M94.61,80.74H86V67.17h8.63v2.88H89.69a17,17,0,0,0,0,2c0,.14.45.34.69.34,1.29,0,2.57,0,3.9,0v2.94H89.73v2.31h4.88Z"/><path d="M26.94,75.36v2.32h4.93v3H23.24V67.18h8.63v2.87H26.94V72.4h4.61v3Z"/><path d="M128.84,71.56c-2.32-1.91-4.48-2-6-.41a4.2,4.2,0,0,0,0,5.58c1.47,1.53,3.72,1.38,6-.48,0,1.31,0,2.52,0,3.73a.57.57,0,0,1-.33.4c-4.19,1.81-8.93.1-10.24-4.23a7,7,0,0,1,6.9-9.34,20.57,20.57,0,0,1,3.26.62.68.68,0,0,1,.41.49C128.86,69.08,128.84,70.25,128.84,71.56Z"/><path d="M115.33,80.72h-3.8V67.16h3.8Z"/><path d="M66.78,50.14V48.47H81.46a4.06,4.06,0,0,1-3.4,1.72c-3.43-.15-6.88,0-10.32,0Z"/><path d="M76.83,52.39c-1.33.74-2.54,1.68-4.25,1.55-1.89-.15-3.81,0-5.77,0V52.39Z"/></svg>