<svg width="137" height="26" viewBox="0 0 137 26" fill="none" xmlns="http://www.w3.org/2000/svg">
<path d="M80.4103 11.7402C81.8003 11.7402 83.1803 11.7402 84.5703 11.7402C84.8803 11.7402 84.9803 11.8302 84.9903 12.1602C85.0679 13.5672 84.8744 14.9761 84.4203 16.3102C83.9682 17.6981 83.145 18.936 82.0398 19.8896C80.9346 20.8432 79.5895 21.4763 78.1503 21.7202C76.6395 22.0658 75.065 22.0155 73.5793 21.574C72.0936 21.1325 70.7472 20.3148 69.6703 19.2002C68.304 17.8109 67.4506 15.9984 67.2503 14.0602C66.9161 11.7655 67.4705 9.42984 68.8003 7.53016C69.4503 6.56159 70.296 5.73994 71.2829 5.11816C72.2698 4.49639 73.376 4.08829 74.5303 3.92016C75.8463 3.66354 77.2022 3.6942 78.5053 4.01004C79.8084 4.32588 81.0278 4.91946 82.0803 5.75016C82.8678 6.36775 83.5442 7.11513 84.0803 7.96016C84.2403 8.20016 84.1803 8.32016 83.9503 8.46016C83.1703 8.92016 82.3903 9.39016 81.6203 9.87016C81.4003 10.0102 81.2803 9.95016 81.1503 9.73016C80.7815 9.06018 80.271 8.47867 79.6544 8.02618C79.0379 7.57368 78.3301 7.26108 77.5803 7.11016C76.1833 6.81744 74.7275 7.04376 73.4853 7.74678C72.2431 8.4498 71.2996 9.58135 70.8313 10.9297C70.3631 12.2781 70.4022 13.7508 70.9413 15.0725C71.4804 16.3941 72.4826 17.474 73.7603 18.1102C74.7925 18.627 75.9574 18.8178 77.1005 18.657C78.2436 18.4963 79.3107 17.9917 80.1603 17.2102C80.644 16.6766 81.0148 16.0507 81.2503 15.3702C81.3803 15.0102 81.3103 14.9002 80.9203 14.9002C79.3603 14.9002 77.8003 14.9002 76.2403 14.9002C75.9103 14.9002 75.8203 14.7902 75.8203 14.4702C75.8203 13.7002 75.8203 12.9102 75.8203 12.1302C75.8203 11.8002 75.9403 11.7202 76.2503 11.7202C77.6403 11.7502 79.0203 11.7402 80.4103 11.7402Z" fill="black"/>
<path d="M39.88 21.6696C39.43 21.6696 38.97 21.6696 38.52 21.6696C38.466 21.6796 38.4106 21.6787 38.3571 21.6669C38.3035 21.6552 38.2528 21.6328 38.2081 21.6011C38.1633 21.5694 38.1254 21.529 38.0965 21.4824C38.0676 21.4358 38.0484 21.3838 38.04 21.3296C37.79 20.5196 37.5 19.7196 37.24 18.9196C37.2227 18.8168 37.1661 18.7248 37.082 18.6632C36.998 18.6015 36.8932 18.5751 36.79 18.5896C34.7433 18.5896 32.6933 18.5896 30.64 18.5896C30.34 18.5896 30.24 18.7296 30.16 18.9696C29.9 19.7796 29.61 20.5696 29.36 21.3796C29.343 21.4653 29.2946 21.5415 29.2243 21.5933C29.154 21.6451 29.0668 21.6688 28.98 21.6596H26.05C25.75 21.6596 25.74 21.5096 25.82 21.2696L28.22 14.4196L30.96 6.61961L31.54 4.93961C31.5484 4.89293 31.566 4.84838 31.5916 4.80852C31.6173 4.76865 31.6507 4.73426 31.6897 4.70731C31.7287 4.68037 31.7727 4.66139 31.8191 4.65149C31.8654 4.64159 31.9133 4.64095 31.96 4.64961H35.46C35.5553 4.63504 35.6525 4.65825 35.7309 4.71428C35.8094 4.77031 35.8628 4.85474 35.88 4.94961C37.52 9.61627 39.1633 14.3029 40.81 19.0096L41.59 21.2396C41.72 21.5996 41.69 21.6496 41.31 21.6496L39.88 21.6696ZM33.72 15.5196H35.6C36 15.5196 36.07 15.4296 35.94 15.0596C35.2733 13.0596 34.6066 11.0929 33.94 9.15961C33.94 9.04961 33.79 8.97961 33.71 8.88961C33.63 8.96961 33.5 9.03961 33.47 9.13961L31.47 15.0796C31.36 15.4196 31.47 15.5096 31.77 15.5196H33.72Z" fill="black"/>
<path d="M107.77 20.3703C107.77 20.7603 107.77 21.0603 107.77 21.3703C107.77 21.6803 107.68 21.6903 107.47 21.6903H104.78C104.56 21.6903 104.5 21.5903 104.5 21.3903C104.5 21.1903 104.5 20.8003 104.5 20.5103C104.5 15.2636 104.5 10.0136 104.5 4.76027C104.5 4.30027 104.5 4.29027 104.97 4.28027H107.36C107.64 4.28027 107.75 4.37027 107.75 4.66027C107.75 6.54027 107.75 8.41027 107.75 10.2903V10.7103C107.822 10.6848 107.892 10.6547 107.96 10.6203C108.966 9.79736 110.225 9.34776 111.525 9.34776C112.825 9.34776 114.084 9.79736 115.09 10.6203C115.867 11.2756 116.471 12.1116 116.849 13.0549C117.228 13.9981 117.369 15.0198 117.26 16.0303C117.258 17.2973 116.844 18.5293 116.081 19.541C115.318 20.5527 114.248 21.2894 113.03 21.6403C112.176 21.9379 111.255 21.9917 110.372 21.7957C109.489 21.5996 108.678 21.1614 108.03 20.5303C107.947 20.4718 107.86 20.4184 107.77 20.3703V20.3703ZM107.71 15.6503C107.697 16.0724 107.768 16.4929 107.919 16.8872C108.071 17.2814 108.299 17.6414 108.592 17.946C108.884 18.2506 109.235 18.4937 109.623 18.661C110.01 18.8284 110.428 18.9165 110.85 18.9203C111.281 18.9203 111.709 18.8347 112.107 18.6684C112.505 18.502 112.866 18.2583 113.169 17.9513C113.473 17.6444 113.712 17.2803 113.873 16.8801C114.035 16.48 114.115 16.0517 114.11 15.6203C114.118 14.7714 113.791 13.9537 113.199 13.345C112.607 12.7364 111.799 12.3861 110.95 12.3703C110.091 12.3833 109.272 12.7316 108.666 13.3407C108.061 13.9498 107.718 14.7715 107.71 15.6303V15.6503Z" fill="black"/>
<path d="M127.87 10.6398C127.87 10.4298 127.87 10.2298 127.87 10.0198C127.87 9.80978 127.95 9.54977 128.32 9.55977C129.13 9.55977 129.95 9.55977 130.76 9.55977C131.04 9.55977 131.14 9.63978 131.14 9.92978C131.14 13.5998 131.14 17.2698 131.14 20.9298C131.14 21.6898 131.33 21.6798 130.4 21.6698H128.27C127.99 21.6698 127.86 21.5798 127.88 21.2798C127.9 20.9798 127.88 20.7098 127.88 20.3698C127.76 20.4298 127.69 20.4498 127.65 20.4998C126.813 21.2844 125.739 21.769 124.597 21.8776C123.455 21.9861 122.31 21.7126 121.34 21.0998C120.521 20.6356 119.828 19.9785 119.321 19.1856C118.814 18.3926 118.508 17.4878 118.43 16.5498C118.274 15.614 118.323 14.6556 118.573 13.7406C118.824 12.8256 119.269 11.9758 119.88 11.2498C120.792 10.2415 122.03 9.588 123.377 9.40499C124.724 9.22199 126.092 9.52123 127.24 10.2498C127.42 10.3798 127.6 10.5298 127.78 10.6798L127.87 10.6398ZM124.78 18.8898C125.62 18.8898 126.426 18.5575 127.022 17.9655C127.617 17.3734 127.955 16.5697 127.96 15.7298C127.971 14.8611 127.641 14.0227 127.041 13.3946C126.441 12.7664 125.618 12.3985 124.75 12.3698C123.91 12.4161 123.12 12.7824 122.542 13.3934C121.964 14.0044 121.641 14.8136 121.641 15.6548C121.641 16.4959 121.964 17.3052 122.542 17.9161C123.12 18.5271 123.91 18.8934 124.75 18.9398L124.78 18.8898Z" fill="black"/>
<path d="M103.3 15.6102C103.302 16.8485 102.936 18.0594 102.249 19.0894C101.561 20.1194 100.583 20.922 99.4392 21.3954C98.295 21.8687 97.036 21.9916 95.8218 21.7483C94.6077 21.505 93.4932 20.9066 92.6198 20.0289C91.7463 19.1512 91.1532 18.0338 90.9158 16.8185C90.6783 15.6033 90.8073 14.3448 91.2862 13.2029C91.765 12.061 92.5723 11.0871 93.6056 10.4048C94.6389 9.72239 95.8516 9.36232 97.0898 9.37025C97.9078 9.37024 98.7178 9.53185 99.4732 9.84581C100.229 10.1598 100.915 10.6199 101.492 11.1997C102.069 11.7795 102.525 12.4677 102.836 13.2246C103.146 13.9815 103.304 14.7922 103.3 15.6102V15.6102ZM93.9898 15.6102C93.9855 16.0306 94.0664 16.4475 94.2277 16.8356C94.3891 17.2238 94.6274 17.5753 94.9284 17.8688C95.2293 18.1623 95.5867 18.3917 95.9788 18.5432C96.3709 18.6947 96.7897 18.7651 97.2098 18.7502C97.8415 18.7442 98.4572 18.5508 98.9789 18.1944C99.5005 17.838 99.9046 17.3348 100.14 16.7485C100.375 16.1622 100.431 15.5192 100.301 14.9011C100.17 14.283 99.8588 13.7176 99.4065 13.2765C98.9542 12.8355 98.3812 12.5386 97.76 12.4237C97.1387 12.3087 96.4974 12.3808 95.9172 12.6307C95.337 12.8807 94.8441 13.2973 94.501 13.8277C94.1578 14.3582 93.9799 14.9786 93.9898 15.6102V15.6102Z" fill="black"/>
<path d="M61.1799 21.9198C59.9186 21.9631 58.6698 21.6587 57.5699 21.0398C56.7717 20.5467 56.1355 19.8306 55.7399 18.9798C55.6399 18.7798 55.6499 18.6498 55.8999 18.5498C56.7599 18.2298 57.6199 17.8998 58.4699 17.5498C58.6899 17.4598 58.7899 17.5498 58.8799 17.7198C59.1841 18.2567 59.6607 18.6752 60.2323 18.9075C60.804 19.1398 61.4374 19.1723 62.0299 18.9998C62.1639 18.9708 62.2922 18.9201 62.4099 18.8498C62.5869 18.7702 62.7369 18.6409 62.8417 18.4775C62.9465 18.3142 63.0014 18.1239 62.9999 17.9298C62.9999 17.5298 62.6399 17.3598 62.3099 17.2798C61.4999 17.0698 60.6599 16.9298 59.8399 16.6998C59.1235 16.5216 58.4241 16.2807 57.7499 15.9798C57.2976 15.7392 56.9087 15.3948 56.6153 14.9748C56.3219 14.5547 56.1323 14.0711 56.062 13.5637C55.9918 13.0562 56.0429 12.5392 56.2111 12.0553C56.3794 11.5714 56.66 11.1342 57.0299 10.7798C57.8387 9.98445 58.8997 9.49637 60.0299 9.39979C61.338 9.20364 62.6749 9.37681 63.8899 9.89979C64.7749 10.3032 65.5074 10.9796 65.9799 11.8298C66.0999 12.0298 66.0799 12.1298 65.8599 12.2198C65.0999 12.5298 64.3599 12.8498 63.6099 13.2198C63.5644 13.2487 63.5131 13.2673 63.4596 13.2744C63.4061 13.2814 63.3518 13.2766 63.3003 13.2604C63.2489 13.2442 63.2016 13.217 63.1618 13.1806C63.122 13.1442 63.0906 13.0996 63.0699 13.0498C62.7187 12.5811 62.2174 12.2469 61.6496 12.1032C61.0818 11.9594 60.4819 12.0147 59.9499 12.2598C59.8076 12.3338 59.6818 12.4359 59.5799 12.5598C59.511 12.6339 59.4613 12.7238 59.4352 12.8216C59.409 12.9194 59.4072 13.0221 59.4299 13.1207C59.4526 13.2194 59.4991 13.311 59.5653 13.3875C59.6316 13.464 59.7155 13.5232 59.8099 13.5598C60.4401 13.7839 61.0849 13.9643 61.7399 14.0998C62.6808 14.267 63.5977 14.5492 64.4699 14.9398C64.8985 15.1421 65.2777 15.4358 65.5809 15.8002C65.884 16.1645 66.1038 16.5908 66.2248 17.0491C66.3458 17.5074 66.3651 17.9866 66.2813 18.4531C66.1976 18.9197 66.0128 19.3622 65.7399 19.7498C65.3535 20.338 64.8386 20.8308 64.2341 21.1911C63.6295 21.5514 62.9511 21.7698 62.2499 21.8298C61.8699 21.8798 61.5199 21.8898 61.1799 21.9198Z" fill="black"/>
<path d="M7.2503 12.2303C7.23361 12.6152 7.13592 12.9923 6.96361 13.3369C6.79129 13.6816 6.54824 13.986 6.2503 14.2303C5.60653 14.8099 5.21228 15.6163 5.1503 16.4803C5.12119 16.8122 5.17545 17.1461 5.30818 17.4517C5.4409 17.7574 5.64788 18.025 5.9103 18.2303C6.4203 18.6903 6.9703 19.1103 7.4503 19.6003C7.92249 20.0746 8.25311 20.6712 8.40502 21.323C8.55693 21.9748 8.52413 22.6561 8.3103 23.2903C8.13151 23.9539 7.76442 24.5516 7.25337 25.0112C6.74231 25.4708 6.10914 25.7727 5.4303 25.8803C4.94317 25.98 4.44098 25.9811 3.95342 25.8834C3.46586 25.7858 3.00283 25.5914 2.5917 25.3117C2.18057 25.032 1.82968 24.6727 1.55978 24.2551C1.28988 23.8375 1.10644 23.37 1.0203 22.8803C0.879401 22.2074 0.930305 21.5086 1.16722 20.8632C1.40413 20.2179 1.81752 19.6521 2.3603 19.2303C2.7003 18.9403 3.0403 18.6403 3.3603 18.3603C3.62516 18.1456 3.84331 17.879 4.00133 17.5769C4.15936 17.2748 4.25392 16.9436 4.27921 16.6036C4.3045 16.2636 4.25998 15.922 4.14838 15.5999C4.03679 15.2777 3.86049 14.9818 3.6303 14.7303C3.3503 14.3603 3.0003 14.0503 2.7003 13.7303C2.26757 13.1817 2.06618 12.4859 2.13903 11.791C2.21188 11.0961 2.55321 10.4572 3.0903 10.0103C3.47018 9.68683 3.9391 9.486 4.43534 9.43423C4.93157 9.38247 5.43185 9.48219 5.8703 9.72028C6.32522 9.95236 6.69997 10.3157 6.94602 10.7632C7.19207 11.2107 7.29807 11.7218 7.2503 12.2303V12.2303Z" fill="black"/>
<path d="M4.87004 0.480333C5.76848 0.477773 6.63782 0.79872 7.31906 1.38448C8.0003 1.97024 8.44792 2.78165 8.58004 3.67033C8.67004 4.20033 8.76004 4.72033 8.88004 5.25033C8.9853 5.75728 9.26521 6.21118 9.67093 6.53284C10.0767 6.8545 10.5824 7.02349 11.1 7.01033C11.6906 7.02942 12.2807 6.95862 12.85 6.80033C13.5024 6.62176 14.1981 6.69548 14.7985 7.00682C15.399 7.31816 15.8601 7.84426 16.09 8.48033C16.2252 8.84242 16.2753 9.23076 16.2365 9.61531C16.1976 9.99986 16.0708 10.3703 15.8659 10.698C15.6609 11.0257 15.3833 11.3019 15.0546 11.5052C14.7259 11.7085 14.3548 11.8334 13.97 11.8703C13.2682 11.9326 12.5688 11.7269 12.0123 11.2947C11.4558 10.8625 11.0835 10.2358 10.97 9.54033C10.7927 8.68818 10.286 7.94059 9.56004 7.46033C9.28692 7.26788 8.96994 7.14691 8.63804 7.10848C8.30614 7.07005 7.96991 7.11538 7.66004 7.24033C6.95004 7.46033 6.26004 7.75033 5.54004 7.92033C5.05217 7.99781 4.55383 7.97844 4.07346 7.86333C3.59308 7.74821 3.14008 7.53961 2.74033 7.24943C2.34057 6.95924 2.00188 6.59316 1.74361 6.17209C1.48533 5.75102 1.31252 5.28319 1.23504 4.79533C1.15756 4.30747 1.17693 3.80913 1.29204 3.32875C1.40715 2.84838 1.61576 2.39538 1.90594 1.99562C2.19612 1.59587 2.5622 1.25718 2.98328 0.998903C3.40435 0.740625 3.87217 0.567812 4.36004 0.490332C4.52933 0.470791 4.7001 0.467444 4.87004 0.480333V0.480333Z" fill="black"/>
<path d="M20.3601 17.2705C19.5153 17.203 18.6892 16.9863 17.9201 16.6305C17.5967 16.5157 17.2611 16.4385 16.9201 16.4005C16.39 16.4135 15.8759 16.584 15.4431 16.8903C15.0103 17.1967 14.6786 17.6249 14.4901 18.1205C14.3401 18.5205 14.2301 18.9405 14.0901 19.3405C13.8981 19.875 13.5469 20.3379 13.0838 20.6669C12.6208 20.9959 12.0681 21.1751 11.5001 21.1805C10.9444 21.1732 10.4063 20.9847 9.9677 20.6435C9.52906 20.3024 9.21387 19.8272 9.07009 19.2905C8.89626 18.6182 8.99531 17.9046 9.34563 17.3051C9.69594 16.7056 10.2691 16.269 10.9401 16.0905C11.5327 15.951 12.1523 15.9787 12.7301 16.1705C13.4565 16.3957 14.2369 16.3746 14.9501 16.1105C15.3199 15.9742 15.6462 15.7406 15.8943 15.4343C16.1425 15.1281 16.3034 14.7605 16.3601 14.3705C16.4901 13.7105 16.5901 13.0405 16.7701 12.3705C17.0199 11.5635 17.5377 10.866 18.2378 10.3932C18.9378 9.92049 19.7782 9.70078 20.6201 9.77046C21.5709 9.86476 22.4501 10.3175 23.0791 11.0367C23.7082 11.7558 24.0398 12.6875 24.0067 13.6424C23.9736 14.5972 23.5782 15.5037 22.9009 16.1776C22.2236 16.8515 21.3151 17.2422 20.3601 17.2705V17.2705Z" fill="black"/>
<path d="M132.9 12.9998V4.75977C132.9 4.26977 132.9 4.25977 133.38 4.25977H135.79C136.06 4.25977 136.16 4.33977 136.16 4.61977C136.16 10.1664 136.16 15.7198 136.16 21.2798C136.16 21.5998 136.04 21.6798 135.75 21.6798C134.94 21.6798 134.12 21.6798 133.31 21.6798C132.98 21.6798 132.89 21.5598 132.89 21.2398C132.896 18.4998 132.9 15.7531 132.9 12.9998Z" fill="black"/>
<path d="M86.3602 12.9695C86.3602 10.1995 86.3602 7.42953 86.3602 4.65953C86.3602 4.37953 86.4502 4.27953 86.7102 4.26953H89.3202C89.6402 4.26953 89.6202 4.48953 89.6202 4.69953V13.0495C89.6202 15.7795 89.6202 18.5195 89.6202 21.2495C89.6202 21.5795 89.5402 21.6995 89.1902 21.6895C88.3702 21.6895 87.5602 21.6895 86.7402 21.6895C86.4602 21.6895 86.3402 21.6195 86.3502 21.2995C86.3502 18.5295 86.3502 15.7595 86.3502 12.9895L86.3602 12.9695Z" fill="black"/>
<path d="M45.8502 11.4604L45.9302 11.3604C46.2177 10.784 46.6538 10.2948 47.1935 9.94326C47.7331 9.59169 48.3568 9.39047 49.0002 9.36035C49.3002 9.36035 49.4402 9.36035 49.4302 9.73035C49.4302 10.6204 49.4302 11.5004 49.4302 12.3904C49.4302 12.6704 49.3602 12.7603 49.0502 12.7603C48.4382 12.6893 47.8194 12.8123 47.2811 13.1119C46.7428 13.4116 46.3122 13.8728 46.0502 14.4304C45.8651 14.87 45.7731 15.3433 45.7802 15.8204C45.7802 17.6104 45.7802 19.4004 45.7802 21.2004C45.7802 21.6404 45.7802 21.6703 45.3102 21.6703C44.5702 21.6703 43.8402 21.6703 43.1102 21.6703C42.8202 21.6703 42.7002 21.6004 42.7002 21.2704C42.7002 17.5204 42.7002 13.7803 42.7002 10.0303C42.7002 9.56035 42.7002 9.56035 43.1702 9.56035C43.8902 9.56035 44.6102 9.56035 45.3302 9.56035C45.6702 9.56035 45.7902 9.68035 45.7802 10.0103C45.7702 10.3403 45.7802 11.0103 45.7802 11.4403L45.8502 11.4604Z" fill="black"/>
<path d="M54.2304 15.6396C54.2304 17.5196 54.2304 19.4096 54.2304 21.2896C54.2304 21.5796 54.1504 21.6796 53.8604 21.6796C53.0804 21.6796 52.3004 21.6796 51.5204 21.6796C51.2704 21.6796 51.1704 21.5996 51.1804 21.3396V9.91957C51.1804 9.63957 51.2904 9.55957 51.5504 9.55957C52.3204 9.55957 53.0904 9.55957 53.8604 9.55957C54.1504 9.55957 54.2304 9.65957 54.2304 9.94957C54.2204 11.8396 54.2304 13.7396 54.2304 15.6396Z" fill="black"/>
<path d="M54.65 6.04013C54.6515 6.30086 54.6004 6.55922 54.4997 6.79976C54.3991 7.0403 54.251 7.25808 54.0644 7.4401C53.8777 7.62212 53.6562 7.76464 53.4132 7.85915C53.1702 7.95365 52.9106 7.9982 52.65 7.99013C52.1865 7.90893 51.7664 7.66688 51.4637 7.30656C51.1611 6.94624 50.9951 6.49072 50.9951 6.02013C50.9951 5.54955 51.1611 5.09403 51.4637 4.73371C51.7664 4.37339 52.1865 4.13134 52.65 4.05013C52.9144 4.0404 53.178 4.08514 53.4244 4.18158C53.6708 4.27801 53.8947 4.42407 54.0823 4.6107C54.2698 4.79732 54.417 5.02051 54.5147 5.26642C54.6124 5.51232 54.6584 5.77568 54.65 6.04013Z" fill="black"/>
</svg>
