<svg id="Layer_1" data-name="Layer 1" xmlns="http://www.w3.org/2000/svg" viewBox="0 0 150 100"><path d="M87.05,51.37c1.39,0,2.77,0,4.16,0,.31,0,.41.09.42.42a11,11,0,0,1-.57,4.15,8,8,0,0,1-6.27,5.41,9,9,0,0,1-8.48-2.52,8.59,8.59,0,0,1-2.42-5.14,9.1,9.1,0,0,1,1.55-6.53,8.35,8.35,0,0,1,5.73-3.61,9.31,9.31,0,0,1,7.55,1.83,8.8,8.8,0,0,1,2,2.21c.16.24.1.36-.13.5-.78.46-1.56.93-2.33,1.41-.22.14-.34.08-.47-.14a5.26,5.26,0,0,0-3.57-2.62,5.87,5.87,0,0,0-3.82,11,5.69,5.69,0,0,0,6.4-.9A5.34,5.34,0,0,0,87.89,55c.13-.36.06-.47-.33-.47-1.56,0-3.12,0-4.68,0-.33,0-.42-.11-.42-.43,0-.77,0-1.56,0-2.34,0-.33.12-.41.43-.41C84.28,51.38,85.66,51.37,87.05,51.37Z"/><path d="M46.52,61.3c-.45,0-.91,0-1.36,0a.41.41,0,0,1-.48-.34c-.25-.81-.54-1.61-.8-2.41a.4.4,0,0,0-.45-.33q-3.07,0-6.15,0c-.3,0-.4.14-.48.38-.26.81-.55,1.6-.8,2.41a.35.35,0,0,1-.38.28H32.69c-.3,0-.31-.15-.23-.39l2.4-6.85,2.74-7.8.58-1.68a.36.36,0,0,1,.42-.29h3.5a.37.37,0,0,1,.42.3q2.46,7,4.93,14.06l.78,2.23c.13.36.1.41-.28.41Zm-6.16-6.15h1.88c.4,0,.47-.09.34-.46q-1-3-2-5.9c0-.11-.15-.18-.23-.27-.08.08-.21.15-.24.25l-2,5.94c-.11.34,0,.43.3.44Z"/><path d="M114.41,60c0,.39,0,.69,0,1s-.09.32-.3.32h-2.69c-.22,0-.28-.1-.28-.3s0-.59,0-.88q0-7.87,0-15.75c0-.46,0-.47.47-.48H114c.28,0,.39.09.39.38,0,1.88,0,3.75,0,5.63v.42a1.79,1.79,0,0,0,.21-.09,5.63,5.63,0,0,1,7.13,0,6.21,6.21,0,0,1,2.17,5.41,5.85,5.85,0,0,1-4.23,5.61,4.87,4.87,0,0,1-5-1.11A2.56,2.56,0,0,0,114.41,60Zm-.06-4.72a3.17,3.17,0,0,0,3.14,3.27,3.26,3.26,0,0,0,3.26-3.3A3.22,3.22,0,0,0,117.59,52,3.29,3.29,0,0,0,114.35,55.26Z"/><path d="M134.51,50.27c0-.21,0-.41,0-.62s.08-.47.45-.46c.81,0,1.63,0,2.44,0,.28,0,.38.08.38.37,0,3.67,0,7.34,0,11,0,.76.19.75-.74.74h-2.13c-.28,0-.41-.09-.39-.39s0-.57,0-.91c-.12.06-.19.08-.23.13a5.18,5.18,0,0,1-6.31.6,5.78,5.78,0,0,1-2.91-4.55,6.56,6.56,0,0,1,1.45-5.3,5.76,5.76,0,0,1,7.36-1c.18.13.36.28.54.43Zm-3.09,8.25a3.18,3.18,0,0,0,3.18-3.16A3.32,3.32,0,0,0,131.39,52a3.29,3.29,0,0,0,0,6.57Z"/><path d="M109.94,55.24A6.25,6.25,0,1,1,103.73,49,6.21,6.21,0,0,1,109.94,55.24Zm-9.31,0a3.11,3.11,0,0,0,3.22,3.14,3.19,3.19,0,1,0-3.22-3.14Z"/><path d="M67.82,61.55a6.88,6.88,0,0,1-3.61-.88,4.8,4.8,0,0,1-1.83-2.06c-.1-.2-.09-.33.16-.43.86-.32,1.72-.65,2.57-1,.22-.09.32,0,.41.17a2.74,2.74,0,0,0,3.15,1.28,1.26,1.26,0,0,0,.38-.15,1,1,0,0,0,.59-.92c0-.4-.36-.57-.69-.65-.81-.21-1.65-.35-2.47-.58a12.58,12.58,0,0,1-2.09-.72,3.24,3.24,0,0,1-.72-5.2,4.87,4.87,0,0,1,3-1.38,7.1,7.1,0,0,1,3.86.5,4.55,4.55,0,0,1,2.09,1.93c.12.2.1.3-.12.39-.76.31-1.5.63-2.25,1a.37.37,0,0,1-.54-.17,2.56,2.56,0,0,0-3.12-.79,1.19,1.19,0,0,0-.37.3.62.62,0,0,0,.23,1,14.56,14.56,0,0,0,1.93.54,11.68,11.68,0,0,1,2.73.84,3.25,3.25,0,0,1,1.27,4.81,4.65,4.65,0,0,1-3.49,2.08C68.51,61.51,68.16,61.52,67.82,61.55Z"/><path d="M13.89,51.86a2.74,2.74,0,0,1-1,2,3.35,3.35,0,0,0-1.1,2.25,2,2,0,0,0,.76,1.75c.51.46,1.06.88,1.54,1.37a3.6,3.6,0,0,1,.86,3.69,3.56,3.56,0,0,1-2.88,2.59,3.72,3.72,0,0,1-4.41-3A3.67,3.67,0,0,1,9,58.86c.34-.29.68-.59,1-.87a2.5,2.5,0,0,0,.27-3.63c-.28-.37-.63-.68-.93-1a2.68,2.68,0,0,1,.39-3.72,2.47,2.47,0,0,1,2.78-.29A2.55,2.55,0,0,1,13.89,51.86Z"/><path d="M11.51,40.11a3.74,3.74,0,0,1,3.71,3.19c.09.53.18,1.05.3,1.58a2.21,2.21,0,0,0,2.22,1.76,5.83,5.83,0,0,0,1.75-.21,2.69,2.69,0,0,1,3.24,1.68,2.52,2.52,0,0,1-2.12,3.39,2.79,2.79,0,0,1-3-2.33,3.3,3.3,0,0,0-1.41-2.08,2,2,0,0,0-1.9-.22c-.71.22-1.4.51-2.12.68A3.76,3.76,0,1,1,11,40.12,2.68,2.68,0,0,1,11.51,40.11Z"/><path d="M27,56.9a7.17,7.17,0,0,1-2.44-.64,4.47,4.47,0,0,0-1-.23,2.67,2.67,0,0,0-2.43,1.72c-.15.4-.26.82-.4,1.22a2.78,2.78,0,0,1-2.59,1.84,2.55,2.55,0,0,1-2.43-1.89,2.63,2.63,0,0,1,1.87-3.2,3.29,3.29,0,0,1,1.79.08,3.45,3.45,0,0,0,2.22-.06A2.19,2.19,0,0,0,23,54c.13-.66.23-1.33.41-2a3.71,3.71,0,0,1,3.85-2.6A3.76,3.76,0,0,1,27,56.9Z"/><path d="M139.54,52.63V44.39c0-.49,0-.5.48-.5h2.41c.27,0,.37.08.37.36q0,8.32,0,16.66c0,.32-.12.4-.41.4-.81,0-1.63,0-2.44,0-.33,0-.42-.12-.42-.44Q139.54,56.76,139.54,52.63Z"/><path d="M93,52.6c0-2.77,0-5.54,0-8.31,0-.28.09-.38.35-.39h2.61c.32,0,.3.22.3.43v8.35c0,2.73,0,5.47,0,8.2,0,.33-.08.45-.43.44-.82,0-1.63,0-2.45,0-.28,0-.4-.07-.39-.39,0-2.77,0-5.54,0-8.31Z"/><path d="M52.49,51.09l.08-.1a3.62,3.62,0,0,1,3.07-2c.3,0,.44,0,.43.37,0,.89,0,1.77,0,2.66,0,.28-.07.37-.38.37a2.94,2.94,0,0,0-3,1.67,3.45,3.45,0,0,0-.27,1.39c0,1.79,0,3.58,0,5.38,0,.44,0,.47-.47.47-.74,0-1.47,0-2.2,0-.29,0-.41-.07-.41-.4,0-3.75,0-7.49,0-11.24,0-.47,0-.47.47-.47.72,0,1.44,0,2.16,0,.34,0,.46.12.45.45s0,1,0,1.43Z"/><path d="M60.87,55.27c0,1.88,0,3.77,0,5.65,0,.29-.08.39-.37.39-.78,0-1.56,0-2.34,0-.25,0-.35-.08-.34-.34V49.55c0-.28.11-.36.37-.36.77,0,1.54,0,2.31,0,.29,0,.37.1.37.39C60.86,51.47,60.87,53.37,60.87,55.27Z"/><path d="M61.29,45.67a1.94,1.94,0,0,1-2,1.95,2,2,0,0,1,0-3.94A1.93,1.93,0,0,1,61.29,45.67Z"/></svg>