<svg width="92" height="70" viewBox="0 0 92 70" fill="none" xmlns="http://www.w3.org/2000/svg">
<path fill-rule="evenodd" clip-rule="evenodd" d="M0.910156 9.7301H10.1702V0.370117H25.1002V9.71011H34.2402V24.7101H25.1002V34.0001H10.1702V24.7101H0.910156V9.7301ZM26.1002 13.2901C25.3577 11.676 24.168 10.3087 22.6721 9.35016C21.1762 8.39165 19.4368 7.8822 17.6602 7.8822C15.8835 7.8822 14.1441 8.39165 12.6482 9.35016C11.1523 10.3087 9.96258 11.676 9.22015 13.2901H15.1501C16.3101 13.2901 17.1501 13.1101 17.1501 12.0701C17.1501 11.4401 16.4302 11.0201 16.4302 10.2101C16.4274 10.068 16.4535 9.9268 16.5069 9.79507C16.5604 9.66335 16.64 9.54383 16.741 9.44379C16.8419 9.34374 16.9622 9.26524 17.0944 9.21304C17.2266 9.16085 17.3681 9.13602 17.5101 9.14011C17.8164 9.13724 18.1117 9.25353 18.3337 9.46439C18.5558 9.67525 18.6872 9.96417 18.7001 10.2701C18.7001 11.0501 17.9602 11.4401 17.9602 12.0401C17.9602 13.0401 18.7001 13.2901 19.4801 13.2901H26.1002ZM8.93016 14.0001C8.2638 15.8373 8.19509 17.8381 8.73387 19.7166C9.27265 21.5952 10.3914 23.2554 11.9302 24.4601L15.6302 17.6501C16.1702 16.6501 16.3202 16.3901 16.3202 15.8001C16.3202 14.9301 15.6602 14.5401 14.8302 14.4801L8.93016 14.0001ZM12.5302 24.9101C14.0476 25.908 15.824 26.4398 17.6402 26.4398C19.4563 26.4398 21.2327 25.908 22.7502 24.9101L18.5302 18.6501C18.1102 18.0501 17.9902 17.8401 17.6002 17.8401C17.2102 17.8401 17.1202 17.9601 16.8002 18.4401L12.5302 24.8901V24.9101ZM26.3502 13.9101L20.5002 14.5901C19.3602 14.7101 18.8802 14.8901 18.8802 15.7501C18.8931 16.2072 19.0277 16.6525 19.2702 17.0401L23.3302 24.5401C24.4551 23.6738 25.3658 22.5603 25.9917 21.2858C26.6177 20.0114 26.9422 18.61 26.9402 17.1901C26.9456 16.0643 26.7491 14.9466 26.3602 13.8901L26.3502 13.9101ZM25.4602 15.2901C25.768 16.544 25.7678 17.8538 25.4596 19.1075C25.1514 20.3613 24.5443 21.5219 23.6902 22.4901L20.4702 16.1101C20.3702 15.9201 20.4701 15.8601 20.7601 15.8101L25.4602 15.2901V15.2901ZM20.8502 24.5501C19.837 24.99 18.7446 25.218 17.6402 25.2201C16.4947 25.2206 15.3625 24.975 14.3202 24.5001L17.3202 20.0801C17.4602 19.8901 17.6302 19.6601 17.8902 20.0801L20.8502 24.5501ZM9.85016 15.4401L14.4602 15.7801C14.8802 15.7801 15.1601 15.8801 14.8701 16.4101L11.5702 22.4101C10.3323 20.957 9.65484 19.109 9.66016 17.2001C9.65691 16.6115 9.72065 16.0243 9.85016 15.4501V15.4401ZM15.1802 9.56012C15.0481 9.9367 15.0137 10.3406 15.0801 10.7341C15.1466 11.1276 15.3117 11.4978 15.5602 11.8101C15.6702 11.9501 15.5602 11.9801 15.4702 12.0001H11.5802C12.5318 10.87 13.7779 10.0254 15.1802 9.56012V9.56012ZM23.8202 11.9901H19.5702C19.5702 11.9901 19.4101 11.9301 19.5101 11.8501C19.7998 11.5347 19.9925 11.1425 20.0652 10.7204C20.1379 10.2984 20.0876 9.86432 19.9202 9.47012C21.4208 9.91407 22.7613 10.7822 23.7802 11.9701L23.8202 11.9901ZM42.5101 0.440125C46.1596 2.27042 50.198 3.18994 54.2802 3.12012C58.2802 3.12012 60.4001 2.56012 65.1501 0.440125C66.6451 3.716 67.3703 7.29062 67.2702 10.8901C67.2702 20.1201 63.0701 29.3901 54.3401 34.4201C50.0696 31.922 46.5372 28.3369 44.1026 24.0298C41.6679 19.7226 40.4181 14.8473 40.4801 9.90012C40.5037 6.64435 41.1839 3.42681 42.4801 0.440125H42.5101ZM43.7702 3.72012C43.1306 5.99936 42.7944 8.35298 42.7702 10.7201C42.7702 19.8201 47.5002 26.5201 54.3902 31.8901C61.5702 26.1801 64.9902 20.0901 64.9902 11.4601C64.9902 6.14011 63.6501 3.64011 63.6501 3.64011C60.6499 5.03552 57.3681 5.71993 54.0602 5.64011C50.5513 5.51556 47.0803 4.87191 43.7601 3.7301L43.7702 3.72012ZM44.9702 5.46011C47.983 6.35409 51.1075 6.81536 54.2502 6.83011C57.1858 6.89601 60.1093 6.43192 62.8802 5.46011C63.348 7.30395 63.5898 9.19788 63.6002 11.1001C63.6002 19.3101 60.7801 24.7801 54.4001 30.2401C51.2939 27.9639 48.7616 24.9943 47.0048 21.5674C45.2479 18.1405 44.315 14.3509 44.2802 10.5001C44.295 8.81078 44.5269 7.13035 44.9702 5.50012V5.46011ZM55.5002 16.0301V17.6401C56.0392 17.5635 56.5344 17.3005 56.8998 16.8968C57.2651 16.493 57.4775 15.9741 57.5002 15.4301C57.5002 11.6101 50.8102 13.6701 50.8102 11.3401C50.8099 11.2417 50.8468 11.1468 50.9136 11.0744C50.9803 11.0021 51.072 10.9577 51.1702 10.9501C51.5302 10.9501 51.8302 11.3101 52.6102 11.3101C53.2002 11.3101 53.3802 11.1901 53.3802 11.0401C53.3802 10.8901 52.1302 10.8301 52.1302 10.3801C52.1302 10.3201 52.1302 10.3201 52.1902 10.3201C53.7702 10.3201 53.9801 10.3201 53.9801 10.1801C53.8319 9.75111 53.5475 9.38238 53.1702 9.13013C52.7487 8.94282 52.2912 8.85061 51.8302 8.86011C51.4735 8.8273 51.1139 8.86689 50.7729 8.97644C50.4319 9.08599 50.1165 9.26326 49.8457 9.49765C49.5749 9.73204 49.3542 10.0187 49.1969 10.3405C49.0396 10.6622 48.9489 11.0124 48.9302 11.3701C48.9588 12.1248 49.2439 12.8473 49.7384 13.4181C50.2329 13.989 50.9072 14.3742 51.6501 14.5101C52.391 14.6414 53.139 14.7282 53.8902 14.7701C55.4702 14.8901 55.5002 14.9801 55.5002 16.0301V16.0301ZM52.1602 16.5901C51.9454 16.7187 51.7691 16.9024 51.6495 17.1223C51.5299 17.3421 51.4714 17.59 51.4801 17.8401C51.5284 18.3233 51.7366 18.7766 52.0717 19.1281C52.4069 19.4795 52.8498 19.709 53.3302 19.7801C53.8053 19.8267 54.2827 19.8467 54.7601 19.8401C55.4501 19.8401 55.6302 20.0201 55.6302 20.7101V21.9001C55.9962 21.8565 56.3339 21.6813 56.5805 21.4072C56.827 21.1331 56.9655 20.7787 56.9702 20.4101C56.9702 17.6501 52.5402 19.9001 52.1602 16.5901ZM53.0002 11.7201V11.9901C53.7438 11.9941 54.4813 12.126 55.1802 12.3801H55.3302L57.5101 10.2001C57.6174 10.0592 57.6895 9.89459 57.7202 9.72012C57.691 9.52763 57.5927 9.35235 57.4435 9.22717C57.2944 9.10199 57.1048 9.0355 56.9102 9.04013C56.7124 9.04194 56.5214 9.11265 56.3701 9.24011L55.7502 9.81012C55.3902 10.1401 55.3902 10.1401 55.3002 10.1401C55.2102 10.1401 55.1501 10.1401 55.1201 9.14011C55.1201 8.61011 55.0602 8.58012 54.5502 8.37012L53.6501 8.00012C53.5479 7.95822 53.4401 7.93126 53.3302 7.9201C53.2479 7.92761 53.1715 7.96567 53.116 8.02676C53.0604 8.08786 53.0298 8.16756 53.0302 8.25012C53.0483 8.3631 53.1007 8.46778 53.1802 8.55011L54.6102 10.1601L54.1602 10.6701H54.4902C54.6402 10.6701 54.7301 10.6701 54.7301 10.8501C54.7301 11.0301 54.6702 11.0901 54.4902 11.0901C54.3811 11.0693 54.2692 11.0693 54.1602 11.0901H53.9202C53.6602 11.0901 53.8302 11.6201 53.0002 11.6801V11.7201ZM53.0002 20.8601C52.4002 21.1301 52.0002 21.4601 52.0002 22.1501C52.0002 24.3201 55.8202 23.5501 55.3802 25.8501C55.6355 25.7424 55.8518 25.5591 56.0002 25.325C56.1485 25.0909 56.2218 24.817 56.2102 24.5401C56.2102 22.4401 52.5302 23.1301 52.9902 20.8601H53.0002ZM54.8802 15.7201C54.2298 15.5241 53.5584 15.4066 52.8802 15.3701C52.6402 15.3701 52.6102 15.3701 52.6102 15.5701C52.6102 17.4801 53.6102 17.5701 54.8802 17.7201V15.7201V15.7201ZM54.8802 20.6301L53.6802 20.4801V21.6101L54.8802 22.2101V20.6301V20.6301ZM53.8802 24.6301V27.7601C53.8802 28.2101 54.0301 28.5401 54.4501 28.5401C54.8701 28.5401 54.9602 28.3001 54.9602 27.7301V25.7701C54.7502 25.4701 54.8702 25.2001 54.6902 24.9301C54.5837 24.8249 54.457 24.7423 54.3178 24.6873C54.1786 24.6324 54.0298 24.6061 53.8802 24.6101V24.6301ZM53.5802 26.9801L53.3401 25.7601C53.1688 25.9054 53.0335 26.0885 52.945 26.295C52.8565 26.5016 52.8172 26.7258 52.8302 26.9501C52.8302 27.5501 52.9802 27.8501 53.2202 27.8501C53.4602 27.8501 53.4602 27.4901 53.4602 27.1301L53.5802 26.9801V26.9801ZM52.5802 9.31012L53.2102 9.49011C53.2102 9.61011 53.0702 9.76013 52.9702 9.76013C52.8702 9.76013 52.6202 9.56013 52.5002 9.29013L52.5802 9.31012ZM29.5802 34.1501C29.285 34.1521 28.996 34.0664 28.7496 33.9039C28.5033 33.7414 28.3108 33.5094 28.1965 33.2373C28.0821 32.9652 28.0512 32.6653 28.1076 32.3756C28.1639 32.0859 28.305 31.8195 28.513 31.6101C28.721 31.4007 28.9865 31.2578 29.2758 31.1995C29.5651 31.1412 29.8652 31.1701 30.138 31.2826C30.4109 31.3951 30.6442 31.5861 30.8083 31.8313C30.9725 32.0765 31.0601 32.365 31.0602 32.6601C31.0604 32.8601 31.0199 33.058 30.9411 33.2418C30.8623 33.4255 30.7468 33.5913 30.6017 33.7289C30.4566 33.8665 30.285 33.9731 30.0973 34.0421C29.9096 34.111 29.7098 34.141 29.5101 34.1301L29.5802 34.1501ZM28.3602 32.6401C28.368 32.8736 28.4444 33.0996 28.5799 33.29C28.7153 33.4804 28.9038 33.6266 29.1218 33.7106C29.3398 33.7946 29.5777 33.8125 29.8059 33.7622C30.034 33.7118 30.2423 33.5955 30.4047 33.4276C30.5672 33.2596 30.6766 33.0476 30.7194 32.818C30.7621 32.5883 30.7364 32.3511 30.6452 32.136C30.5541 31.9208 30.4017 31.7373 30.2069 31.6082C30.0122 31.4791 29.7838 31.4103 29.5502 31.4101C29.3909 31.4114 29.2334 31.4444 29.087 31.5071C28.9406 31.5699 28.8081 31.6612 28.6973 31.7757C28.5866 31.8902 28.4997 32.0256 28.4418 32.174C28.3839 32.3224 28.3562 32.4809 28.3602 32.6401V32.6401ZM29.2502 32.7601V33.5001H28.9902V31.7901H29.6302C30.0302 31.7901 30.2301 31.9401 30.2301 32.2801C30.2328 32.34 30.2235 32.3999 30.2027 32.4561C30.1819 32.5124 30.1501 32.564 30.1091 32.6078C30.0681 32.6515 30.0188 32.6867 29.964 32.7112C29.9092 32.7356 29.8501 32.7488 29.7901 32.7501L30.2702 33.5001H29.9801L29.5401 32.7601H29.2502ZM29.2502 32.5401H29.5502C29.7702 32.5401 29.9602 32.5401 29.9602 32.2601C29.9602 31.9801 29.7701 32.0101 29.5901 32.0101H29.2502V32.5401ZM64.8802 31.9001C64.5868 31.902 64.2994 31.8172 64.054 31.6564C63.8086 31.4956 63.6161 31.2659 63.5007 30.9961C63.3854 30.7264 63.3522 30.4285 63.4054 30.14C63.4586 29.8515 63.5958 29.5851 63.7997 29.3742C64.0037 29.1633 64.2654 29.0174 64.552 28.9546C64.8387 28.8919 65.1374 28.9151 65.4108 29.0215C65.6843 29.1278 65.9202 29.3126 66.0891 29.5525C66.258 29.7924 66.3523 30.0768 66.3602 30.3701C66.3685 30.5724 66.335 30.7743 66.2617 30.963C66.1885 31.1518 66.077 31.3234 65.9343 31.467C65.7916 31.6107 65.6207 31.7233 65.4324 31.7978C65.2442 31.8723 65.0425 31.9072 64.8401 31.9001H64.8802ZM63.6501 30.3701C63.658 30.6036 63.7344 30.8296 63.8699 31.02C64.0053 31.2104 64.1938 31.3566 64.4118 31.4406C64.6298 31.5246 64.8677 31.5425 65.0959 31.4922C65.324 31.4418 65.5323 31.3255 65.6947 31.1576C65.8572 30.9897 65.9666 30.7776 66.0094 30.5479C66.0521 30.3183 66.0264 30.0811 65.9352 29.866C65.8441 29.6508 65.6917 29.4673 65.4969 29.3382C65.3022 29.2092 65.0738 29.1402 64.8401 29.1401C64.6808 29.1414 64.5234 29.1744 64.377 29.2372C64.2306 29.2999 64.0981 29.3912 63.9873 29.5057C63.8766 29.6202 63.7897 29.7556 63.7318 29.904C63.6739 30.0524 63.6462 30.2109 63.6501 30.3701V30.3701ZM64.5302 30.4901V31.2301H64.2802V29.5201H64.9202C65.3202 29.5201 65.5202 29.6701 65.5202 30.0101C65.5228 30.0701 65.5135 30.1299 65.4927 30.1862C65.4719 30.2424 65.4401 30.294 65.3991 30.3378C65.3581 30.3816 65.3088 30.4167 65.254 30.4412C65.1992 30.4656 65.1401 30.4788 65.0802 30.4801L65.5602 31.2301H65.2702L64.8302 30.4901H64.5302ZM64.5302 30.2701H64.8401C65.0601 30.2701 65.2502 30.2701 65.2502 29.9901C65.2502 29.7101 65.0602 29.7401 64.8802 29.7401H64.5302V30.2701ZM0.910156 52.5701V39.8601H6.71016C9.25016 39.8601 10.7601 41.0601 10.7601 43.0601C10.7723 43.7035 10.5544 44.33 10.1455 44.8268C9.73665 45.3237 9.1638 45.6582 8.53015 45.7701C9.30198 45.917 9.99639 46.3337 10.4892 46.9456C10.982 47.5575 11.2411 48.3247 11.2202 49.1101C11.2202 51.2101 9.63015 52.5701 7.17015 52.5701H0.910156ZM3.35016 50.6601H6.03015C7.76015 50.6601 8.64015 50.0301 8.64015 48.7501C8.64015 47.4701 7.80016 46.8601 5.93016 46.8601H3.36015L3.35016 50.6601ZM3.35016 45.0301H5.91016C7.52016 45.0301 8.35016 44.4601 8.35016 43.3501C8.35016 42.2401 7.57016 41.7501 5.85016 41.7501H3.36015L3.35016 45.0301ZM12.5401 39.8601H14.8701V52.5701H12.5401V39.8601ZM24.5401 43.2901V52.5701H22.2102V51.5701C21.8569 51.9494 21.4299 52.2523 20.9552 52.4604C20.4806 52.6685 19.9684 52.7773 19.4501 52.7801C18.9625 52.7931 18.479 52.6869 18.0416 52.4709C17.6043 52.2548 17.2262 51.9353 16.9402 51.5401C16.4102 50.7301 16.3102 50.2801 16.3102 48.4301V43.2501H18.6802V48.4301C18.6802 50.1201 19.1201 50.7501 20.2901 50.7501C21.4601 50.7501 22.1902 49.9501 22.1902 48.4301V43.2501L24.5401 43.2901ZM34.9501 48.4701H28.1802C28.1553 48.7935 28.2 49.1184 28.3112 49.423C28.4225 49.7276 28.5977 50.0049 28.8251 50.2361C29.0525 50.4673 29.3268 50.647 29.6296 50.7633C29.9323 50.8796 30.2564 50.9297 30.5802 50.9101C30.97 50.9356 31.3583 50.841 31.6927 50.6389C32.0271 50.4369 32.2914 50.1371 32.4501 49.7801H34.8802C34.5839 50.6857 33.9992 51.4693 33.2154 52.0111C32.4317 52.5529 31.492 52.823 30.5401 52.7801C29.8997 52.8004 29.2621 52.6875 28.6675 52.4486C28.073 52.2097 27.5345 51.85 27.0861 51.3922C26.6378 50.9345 26.2893 50.3886 26.0628 49.7892C25.8363 49.1899 25.7366 48.55 25.7702 47.9101C25.7702 45.0301 27.6402 42.9801 30.3102 42.9801C33.1702 43.0201 34.9301 45.0701 34.9801 48.4701H34.9501ZM32.5502 46.8801C32.3802 45.4901 31.6302 44.7601 30.3902 44.7601C30.1038 44.7419 29.8167 44.7837 29.5474 44.8828C29.2781 44.982 29.0325 45.1363 28.8264 45.3358C28.6202 45.5354 28.458 45.7759 28.3501 46.0418C28.2423 46.3078 28.1912 46.5933 28.2001 46.8801H32.5502ZM52.1201 48.3701H54.7102C54.4102 51.0201 52.2302 52.8001 49.3102 52.8001C45.5702 52.8001 42.9902 50.0701 42.9902 46.1001C42.9902 42.2801 45.5702 39.5701 49.2102 39.5701C50.5088 39.4719 51.7967 39.8674 52.8163 40.6776C53.836 41.4877 54.5123 42.6529 54.7102 43.9401H52.1402C52.0176 43.2838 51.6613 42.6942 51.1373 42.2805C50.6132 41.8667 49.957 41.657 49.2901 41.6901C47.1001 41.6901 45.5702 43.4801 45.5702 46.0801C45.5702 48.6801 47.2102 50.7401 49.3502 50.7401C50.0269 50.7721 50.6902 50.5447 51.205 50.1042C51.7197 49.6638 52.047 49.0436 52.1201 48.3701V48.3701ZM55.8802 43.2701H58.1902V44.5501C58.4117 44.1213 58.7433 43.7591 59.151 43.5008C59.5587 43.2425 60.0278 43.0973 60.5101 43.0801C60.7165 43.0641 60.9238 43.0641 61.1302 43.0801V45.0801H60.7202C60.3673 45.0647 60.0153 45.1261 59.6884 45.2601C59.3616 45.394 59.0677 45.5974 58.8271 45.856C58.5866 46.1146 58.405 46.4224 58.2951 46.7581C58.1851 47.0937 58.1493 47.4493 58.1902 47.8001V52.5201H55.8802V43.2701ZM71.1802 47.9701C71.1449 48.9137 70.8332 49.8261 70.2839 50.5941C69.7346 51.3621 68.9719 51.9518 68.0903 52.2901C67.2088 52.6283 66.2473 52.7003 65.3252 52.4969C64.4032 52.2935 63.5612 51.8237 62.9038 51.146C62.2463 50.4682 61.8025 49.6123 61.6272 48.6845C61.452 47.7567 61.5532 46.7978 61.9181 45.927C62.2831 45.0562 62.8958 44.3117 63.6801 43.786C64.4645 43.2604 65.386 42.9767 66.3302 42.9701C66.9836 42.9626 67.6318 43.0887 68.2348 43.3405C68.8379 43.5923 69.3832 43.9646 69.8373 44.4346C70.2914 44.9046 70.6447 45.4624 70.8756 46.0738C71.1065 46.6852 71.2102 47.3373 71.1802 47.9901V47.9701ZM68.8002 47.9701C68.8002 46.0801 67.8002 44.8201 66.4102 44.8201C65.0202 44.8201 63.9302 46.0401 63.9302 47.9301C63.9302 49.8201 64.8602 51.0601 66.3502 51.0601C67.8402 51.0601 68.8002 49.8201 68.8002 47.9701V47.9701ZM80.3602 46.0401H78.3602C78.2601 45.6269 78.0106 45.2654 77.6597 45.0254C77.3089 44.7853 76.8815 44.6837 76.4602 44.7401C75.4602 44.7401 74.8002 45.1801 74.8002 45.7901C74.8002 46.4001 75.0702 46.5401 77.3602 46.9601C78.2256 47.0125 79.0597 47.3032 79.7702 47.8001C80.0652 48.0406 80.3002 48.3466 80.4564 48.6938C80.6127 49.041 80.6858 49.4197 80.6702 49.8001C80.6702 51.6101 79.0802 52.8001 76.6702 52.8001C74.2602 52.8001 72.6701 51.6501 72.4401 49.5901H74.5502C74.5807 49.832 74.6594 50.0653 74.7818 50.2762C74.9043 50.487 75.0678 50.6712 75.2627 50.8176C75.4577 50.9641 75.6801 51.0698 75.9167 51.1287C76.1533 51.1875 76.3993 51.1982 76.6402 51.1601C77.7002 51.1601 78.4302 50.6801 78.4302 49.9501C78.4302 49.2201 78.0901 49.1501 76.8501 48.9501C75.6254 48.8532 74.4469 48.4397 73.4302 47.7501C73.1801 47.5353 72.9806 47.268 72.8457 46.9673C72.7109 46.6665 72.6441 46.3397 72.6502 46.0101C72.6502 44.2601 74.1902 43.0101 76.3702 43.0101C78.5502 43.0101 80.1502 44.1701 80.3702 46.0101L80.3602 46.0401ZM89.9202 46.0401H87.9202C87.8202 45.6289 87.5722 45.2689 87.2235 45.029C86.8748 44.7892 86.45 44.6863 86.0302 44.7401C85.0302 44.7401 84.3602 45.1801 84.3602 45.7901C84.3602 46.4001 84.6302 46.5401 86.9202 46.9601C87.7856 47.0125 88.6197 47.3032 89.3302 47.8001C89.6252 48.0406 89.8602 48.3466 90.0164 48.6938C90.1727 49.041 90.2458 49.4197 90.2301 49.8001C90.2301 51.6101 88.6401 52.8001 86.2301 52.8001C83.8201 52.8001 82.2302 51.6501 82.0002 49.5901H84.1102C84.1407 49.832 84.2194 50.0653 84.3418 50.2762C84.4643 50.487 84.6278 50.6712 84.8227 50.8176C85.0177 50.9641 85.2401 51.0698 85.4767 51.1287C85.7133 51.1875 85.9593 51.1982 86.2001 51.1601C87.2601 51.1601 87.9902 50.6801 87.9902 49.9501C87.9902 49.2201 87.6501 49.1501 86.4101 48.9501C85.1854 48.8532 84.0069 48.4397 82.9902 47.7501C82.7401 47.5353 82.5406 47.268 82.4057 46.9673C82.2709 46.6665 82.2041 46.3397 82.2102 46.0101C82.2102 44.2601 83.7502 43.0101 85.9302 43.0101C88.1102 43.0101 89.7102 44.1701 89.9302 46.0101L89.9202 46.0401ZM0.95015 69.3701V56.6601H6.75015C9.29015 56.6601 10.8002 57.8601 10.8002 59.8701C10.8079 60.5139 10.587 61.1395 10.1769 61.6357C9.76671 62.1319 9.19384 62.4665 8.56015 62.5801C9.33382 62.7249 10.0306 63.1407 10.5254 63.7528C11.0202 64.3649 11.2807 65.1333 11.2601 65.9201C11.2601 68.0201 9.67016 69.3801 7.21016 69.3801L0.95015 69.3701ZM3.36015 67.4701H6.03015C7.77015 67.4701 8.65015 66.8401 8.65015 65.5601C8.65015 64.2801 7.81016 63.6701 5.94016 63.6701H3.36015V67.4701ZM3.36015 61.8301H5.92015C7.52015 61.8301 8.36015 61.2601 8.36015 60.1601C8.36015 59.0601 7.58015 58.5501 5.86015 58.5501H3.36015V61.8301ZM12.4902 56.6601H14.8102V69.3701H12.4902V56.6601ZM24.5502 60.1001V69.3701H22.2202V68.3701C21.8642 68.7478 21.435 69.049 20.9587 69.2553C20.4825 69.4617 19.9692 69.5688 19.4501 69.5701C18.9633 69.5867 18.48 69.4821 18.0437 69.2656C17.6073 69.0492 17.2315 68.7277 16.9501 68.3301C16.4101 67.5301 16.3202 67.0701 16.3202 65.2201V60.0501H18.6902V65.2201C18.6902 66.9201 19.1301 67.5501 20.2901 67.5501C21.4501 67.5501 22.2001 66.7501 22.2001 65.2201V60.0501L24.5502 60.1001ZM34.9302 65.2701H28.1602C28.1336 65.5938 28.1771 65.9195 28.2878 66.2249C28.3984 66.5302 28.5736 66.8082 28.8014 67.0397C29.0291 67.2713 29.3041 67.4511 29.6077 67.5667C29.9112 67.6824 30.236 67.7313 30.5602 67.7101C30.9489 67.7364 31.3364 67.6432 31.6706 67.4431C32.0049 67.2429 32.2699 66.9452 32.4302 66.5901H34.8602C34.5654 67.4966 33.981 68.2812 33.1969 68.8232C32.4128 69.3652 31.4723 69.6347 30.5202 69.5901C29.8802 69.6118 29.2427 69.5002 28.6482 69.2624C28.0537 69.0247 27.5151 68.6659 27.0666 68.2089C26.618 67.7519 26.2694 67.2067 26.0428 66.6078C25.8162 66.009 25.7165 65.3695 25.7502 64.7301C25.7502 61.8401 27.6201 59.8001 30.2901 59.8001C33.1201 59.8001 34.8802 61.8001 34.9302 65.2401V65.2701ZM32.5302 63.6901C32.3602 62.2901 31.6101 61.5701 30.3701 61.5701C30.0837 61.5535 29.7969 61.5964 29.5277 61.696C29.2586 61.7956 29.013 61.9497 28.8064 62.1489C28.5998 62.348 28.4366 62.5877 28.3271 62.8529C28.2176 63.1182 28.1642 63.4032 28.1702 63.6901H32.5302ZM53.5302 60.2901H51.1802C50.9502 58.9901 50.1302 58.4001 48.5302 58.4001C47.1002 58.4001 46.1802 59.0101 46.1802 59.9501C46.1802 60.8901 46.6902 61.2201 47.9402 61.5101L49.6302 61.9301C50.7748 62.0711 51.8616 62.5128 52.7802 63.2101C53.1189 63.5239 53.3888 63.9046 53.573 64.328C53.7572 64.7514 53.8515 65.2084 53.8502 65.6701C53.8502 68.0201 51.7302 69.6201 48.6602 69.6201C45.5902 69.6201 43.5102 68.0601 43.3502 65.4401H45.7802C45.8502 66.9501 46.7802 67.6801 48.6002 67.6801C50.2502 67.6801 51.3002 67.0101 51.3002 65.9801C51.3002 65.2501 50.9301 64.8301 50.0401 64.5501C49.3201 64.3301 48.6002 64.1301 47.8802 63.9501C46.847 63.7504 45.8538 63.3821 44.9402 62.8601C44.5288 62.5591 44.1971 62.1622 43.974 61.7038C43.751 61.2455 43.6432 60.7396 43.6602 60.2301C43.6602 57.9201 45.5902 56.3901 48.5302 56.3901C50.5302 56.3901 52.1202 57.1001 52.8602 58.3901C53.2204 58.9847 53.4489 59.6497 53.5302 60.3401V60.2901ZM55.1602 56.6601H57.5002V61.3701C57.7829 60.9041 58.1789 60.5171 58.6515 60.2454C59.124 59.9736 59.6576 59.8259 60.2026 59.8159C60.7476 59.8059 61.2863 59.934 61.7684 60.1883C62.2506 60.4426 62.6606 60.8147 62.9602 61.2701C63.3782 62.0078 63.5597 62.856 63.4801 63.7001V69.3701H61.1702V64.1701C61.1702 62.6801 60.5602 61.8601 59.4702 61.8601C58.1502 61.8601 57.4702 62.7201 57.4702 64.4601V69.3701H55.1302V56.6601H55.1602ZM64.8401 60.1001H67.1702V69.3701H64.8401V60.1001ZM64.8401 56.5901H67.1702V58.7001H64.8401V56.5901ZM77.6901 65.2701H70.9202C70.8936 65.5938 70.9371 65.9195 71.0478 66.2249C71.1584 66.5302 71.3336 66.8082 71.5614 67.0397C71.7891 67.2713 72.0642 67.4511 72.3677 67.5667C72.6712 67.6824 72.996 67.7313 73.3201 67.7101C73.7089 67.7364 74.0964 67.6432 74.4306 67.4431C74.7649 67.2429 75.0299 66.9452 75.1901 66.5901H77.6202C77.3254 67.4966 76.741 68.2812 75.9569 68.8232C75.1728 69.3652 74.2323 69.6347 73.2802 69.5901C72.6402 69.6118 72.0027 69.5002 71.4082 69.2624C70.8137 69.0247 70.2751 68.6659 69.8266 68.2089C69.378 67.7519 69.0294 67.2067 68.8028 66.6078C68.5762 66.009 68.4765 65.3695 68.5101 64.7301C68.5101 61.8401 70.3802 59.8001 73.0502 59.8001C75.8802 59.8001 77.6401 61.8001 77.6901 65.2401V65.2701ZM75.2901 63.6901C75.1201 62.2901 74.3701 61.5701 73.1301 61.5701C72.8437 61.5535 72.5569 61.5964 72.2877 61.696C72.0186 61.7956 71.773 61.9497 71.5664 62.1489C71.3598 62.348 71.1966 62.5877 71.0871 62.8529C70.9776 63.1182 70.9242 63.4032 70.9302 63.6901H75.2901ZM79.1102 56.6901H81.4401V69.3701H79.1102V56.6601V56.6901ZM89.5902 56.7901H91.9101V69.3701H89.5902V68.3001C89.2704 68.713 88.8592 69.0461 88.389 69.2734C87.9188 69.5007 87.4024 69.616 86.8801 69.6101C84.5001 69.6101 82.7802 67.6101 82.7802 64.7601C82.7802 61.9101 84.5002 59.8201 86.7102 59.8201C87.2548 59.8324 87.7912 59.9558 88.2864 60.1828C88.7816 60.4098 89.2253 60.7356 89.5902 61.1401V56.7901ZM87.4401 61.7901C86.0401 61.7901 85.1502 62.9701 85.1502 64.7901C85.1502 66.6101 86.0802 67.7901 87.4202 67.7901C88.7602 67.7901 89.6901 66.5501 89.6901 64.7101C89.6901 62.8701 88.7701 61.7101 87.4401 61.7101V61.7901Z" fill="#010101"/>
</svg>
