<svg id="Layer_1" data-name="Layer 1" xmlns="http://www.w3.org/2000/svg" viewBox="0 0 150 100"><path d="M80.18,44.43,96.74,65.28c-.52,0-.84.09-1.16.1-2.91,0-5.82,0-8.73,0a1.76,1.76,0,0,1-1.56-.77c-3.27-4.16-6.57-8.3-9.86-12.44-.21-.26-.45-.49-.73-.79l-7.46,9.38c-1.1,1.38-2.18,2.77-3.31,4.13a1.32,1.32,0,0,1-.83.46c-3.33,0-6.66,0-10,0-.06,0-.12-.06-.3-.15,1.09-1.39,2.17-2.76,3.26-4.13,4.17-5.25,8.33-10.51,12.55-15.73.64-.79.43-1.26-.1-1.93Q61,34,53.47,24.52c-.21-.27-.4-.56-.67-.93a4.31,4.31,0,0,1,.69-.13c3.12,0,6.24,0,9.36,0a1.75,1.75,0,0,1,1.16.61c3.43,4.25,6.82,8.54,10.22,12.81l.5.59c1.17-1.45,2.32-2.85,3.45-4.27C80.63,30.14,83.07,27,85.54,24a1.25,1.25,0,0,1,.82-.49c3.39,0,6.79,0,10.48,0Z"/><path d="M102,47.78a13.89,13.89,0,0,0,3.79,6.12,13.09,13.09,0,0,0,9.12,3.31c4.3,0,8.6,0,12.9,0H129v8.06a.61.61,0,0,1-.23.09c-5.33,0-10.68.15-16-.1a20.1,20.1,0,0,1-14.34-7,21.13,21.13,0,0,1-5-9.64,8.06,8.06,0,0,1-.12-.89Z"/><path d="M47.65,47.73H56.4A44.44,44.44,0,0,1,55,52.17,21.06,21.06,0,0,1,39.48,64.94a13.78,13.78,0,0,1-3.06.38c-5.27,0-10.53,0-15.86,0V57.22h1.07c4.36,0,8.73,0,13.09,0,4.82-.05,8.71-1.93,11.29-6.12A34.64,34.64,0,0,0,47.65,47.73Z"/><path d="M129,23.48v8.19h-1.07c-4,0-8.11.1-12.16,0-7.06-.21-11.78,3.37-13.83,9.47H93.06a43.68,43.68,0,0,1,1.56-4.69c3.88-8.29,10.46-12.65,19.59-12.95,4.78-.15,9.56,0,14.35,0Z"/><path d="M20.55,23.33c6,.13,12.08-.19,18,.51,7.11.83,12.41,4.92,15.69,11.36a63.13,63.13,0,0,1,2.33,6c-2.29,0-4.23-.15-6.13,0-2.09.21-3.06-.47-4-2.48-2.21-4.76-6.32-7-11.53-7-4.33-.06-8.66,0-13,0H20.55Z"/><path d="M63.91,73.34a2.15,2.15,0,0,1,2.65,1c1,1.53,2.23,2.95,3.55,4.66V73.31H72v9.16a1.93,1.93,0,0,1-2.39-.88c-1.13-1.63-2.39-3.17-3.8-5v5.93h-1.9Z"/><path d="M106.61,77.9a4.91,4.91,0,0,1-9.82,0,4.91,4.91,0,0,1,9.82,0Zm-2.08,0a2.93,2.93,0,0,0-2.84-3,3,3,0,1,0,2.84,3Z"/><path d="M85,77.91a4.91,4.91,0,0,1-9.82,0,4.7,4.7,0,0,1,5-4.74A4.65,4.65,0,0,1,85,77.91Zm-7.75,0a2.89,2.89,0,0,0,2.82,3,2.83,2.83,0,0,0,2.85-3,2.94,2.94,0,0,0-2.87-3A2.89,2.89,0,0,0,77.24,77.91Z"/><path d="M117.65,74.41l-1.18,1.41c-.29-.17-.53-.32-.77-.45a2.84,2.84,0,0,0-3.46.28,3.36,3.36,0,0,0-.67,3.64,2.87,2.87,0,0,0,3.1,1.6c1.23-.14,1.5-.47,1.42-1.86-.32,0-.65,0-1-.06s-.61,0-1,0V77.26c.24,0,.44,0,.64,0H118c0,1.29,0,2.52,0,3.75a.72.72,0,0,1-.27.52c-2.9,2.22-7.35,1.43-8.36-2.13a4.94,4.94,0,0,1,2.12-5.59A5.53,5.53,0,0,1,117.65,74.41Z"/><path d="M33,75V77h4.27v1.79H33v2H37.9v1.75H31V73.3h6.91V75Z"/><path d="M60,73.32v9.19H58.15V78.88H54.26v3.61H52.33V73.31h1.85v3.56h3.89V73.32Z"/><path d="M48.1,79.84,49.22,81c-1.22,2-4.55,2.37-6.57.84a4.93,4.93,0,0,1-.72-7.09,5.05,5.05,0,0,1,7.26-.15L48,75.93c-2.08-1.31-3.47-1.3-4.52,0a3.27,3.27,0,0,0,0,4C44.66,81.21,46,81.2,48.1,79.84Z"/><path d="M20.53,73.3h7.53v1.76H25.31v7.43h-2V75.12H20.53Z"/><path d="M120.07,73.37c2.07-.33,2.08-.33,3,1.25.47.76.93,1.52,1.44,2.38a15.82,15.82,0,0,0,1.38-2.29c.57-1.48,1.64-1.68,3.12-1.39a32.4,32.4,0,0,1-1.8,2.83A7.39,7.39,0,0,0,125.5,82a2.62,2.62,0,0,1,0,.54h-2C124.56,78.65,121.57,76.31,120.07,73.37Z"/><path d="M88.09,82.51V73.32H90v7.4h4.7v1.79Z"/></svg>