<svg width="109" height="60" viewBox="0 0 109 60" fill="none" xmlns="http://www.w3.org/2000/svg">
<path d="M59.8004 21.1396L76.3604 41.9896C75.8504 41.9896 75.5204 42.0796 75.2004 42.0796C72.2904 42.0796 69.3804 42.0796 66.4704 42.0796C66.1649 42.0974 65.86 42.0347 65.5863 41.8978C65.3126 41.761 65.0795 41.5547 64.9104 41.2996C61.6404 37.1396 58.3504 33.0096 55.0504 28.8696C54.8404 28.6096 54.6004 28.3697 54.3204 28.0697L46.8604 37.4496C45.7604 38.8296 44.6804 40.2196 43.5504 41.5796C43.3436 41.8345 43.0461 41.9993 42.7204 42.0397C39.3904 42.0397 36.0604 42.0397 32.7204 42.0397C32.6604 42.0397 32.6004 41.9797 32.4204 41.8797C33.5104 40.4897 34.5904 39.1197 35.6804 37.7597C39.8504 32.5097 44.0204 27.2396 48.2404 22.0296C48.8704 21.2396 48.6604 20.7597 48.1304 20.0997C43.1037 13.8197 38.0837 7.52297 33.0704 1.20964C32.8604 0.93964 32.6704 0.649648 32.4004 0.279648C32.6265 0.217621 32.8572 0.174138 33.0904 0.149643C36.2104 0.149643 39.3304 0.149643 42.4504 0.149643C42.9044 0.194578 43.3236 0.413112 43.6204 0.759644C47.0404 5.00964 50.4304 9.28966 53.8304 13.5697L54.3304 14.1597C55.5004 12.7097 56.6504 11.2996 57.7804 9.88965C60.2304 6.80965 62.6704 3.70965 65.1404 0.639648C65.3406 0.375183 65.6336 0.196496 65.9604 0.139648C69.3504 0.139648 72.7504 0.139648 76.4404 0.139648C70.8304 7.25965 65.3604 14.1596 59.8004 21.1396Z" fill="black"/>
<path d="M81.5799 24.4904C82.2838 26.825 83.5911 28.9326 85.3699 30.6004C87.8714 32.8418 91.1432 34.0279 94.4999 33.9104C98.7899 33.9104 103.09 33.9104 107.39 33.9104H108.58V41.9804C108.51 42.0258 108.432 42.0564 108.35 42.0704C103.02 42.0704 97.6699 42.2104 92.3499 41.9704C89.6074 41.8423 86.9199 41.1553 84.4524 39.9516C81.9848 38.7479 79.7891 37.0529 77.9999 34.9704C75.5276 32.2436 73.8048 28.9221 72.9999 25.3304C72.9399 25.0704 72.9299 24.7904 72.8799 24.4404L81.5799 24.4904Z" fill="black"/>
<path d="M27.2697 24.4404H36.0197C35.6211 25.9412 35.1438 27.4199 34.5897 28.8704C33.2761 32.1202 31.1725 34.9908 28.4695 37.2224C25.7664 39.454 22.5494 40.9759 19.1097 41.6504C18.1019 41.8808 17.0732 42.0081 16.0397 42.0304C10.7797 42.0304 5.50969 42.0304 0.179688 42.0304V33.9004H1.24968C5.60968 33.9004 9.97968 33.9004 14.3397 33.9004C19.1597 33.8504 23.0497 31.9604 25.6397 27.7804C26.2797 26.7404 26.7297 25.5604 27.2697 24.4404Z" fill="black"/>
<path d="M108.6 0.180013V8.37002H107.53C103.48 8.37002 99.4197 8.47002 95.3697 8.37002C88.3097 8.15002 83.5897 11.73 81.5397 17.84H72.6797C73.1093 16.2481 73.6302 14.6821 74.2397 13.15C78.1197 4.86001 84.6997 0.500017 93.8297 0.200017C98.6097 0.0400174 103.4 0.200017 108.18 0.200017L108.6 0.180013Z" fill="black"/>
<path d="M0.169647 0.0302734C6.21965 0.170273 12.2496 -0.149732 18.1696 0.540268C25.2796 1.38027 30.5796 5.47027 33.8696 11.9003C34.7896 13.7203 35.3597 15.7203 36.1897 17.9003C33.9097 17.9003 31.9696 17.7503 30.0596 17.9003C27.9696 18.1103 27.0596 17.4203 26.0596 15.4203C23.8496 10.6603 19.7396 8.42027 14.5296 8.42027C10.1996 8.36027 5.86965 8.42027 1.52965 8.42027H0.139648L0.169647 0.0302734Z" fill="black"/>
<path d="M43.5303 50.0498C44.0198 49.8687 44.5582 49.8702 45.0467 50.0538C45.5353 50.2375 45.9413 50.5911 46.1903 51.0498C47.1903 52.5898 48.4103 53.9998 49.7403 55.7198V49.9998H51.6203V59.1598C51.1818 59.3275 50.6973 59.3296 50.2573 59.1658C49.8174 59.002 49.4523 58.6834 49.2303 58.2698C48.1103 56.6398 46.8403 55.1098 45.4303 53.2698V59.1898H43.5303V50.0498Z" fill="black"/>
<path d="M86.2302 54.6102C86.2302 55.9124 85.7129 57.1613 84.7921 58.0821C83.8712 59.0029 82.6224 59.5202 81.3202 59.5202C80.0179 59.5202 78.7691 59.0029 77.8483 58.0821C76.9275 57.1613 76.4102 55.9124 76.4102 54.6102C76.4102 53.308 76.9275 52.0591 77.8483 51.1383C78.7691 50.2175 80.0179 49.7002 81.3202 49.7002C82.6224 49.7002 83.8712 50.2175 84.7921 51.1383C85.7129 52.0591 86.2302 53.308 86.2302 54.6102ZM84.1502 54.6102C84.169 53.8364 83.8809 53.0866 83.3488 52.5245C82.8167 51.9624 82.0838 51.6337 81.3102 51.6102C80.7111 51.5782 80.1161 51.7266 79.6021 52.0362C79.0882 52.3458 78.6789 52.8024 78.4271 53.347C78.1753 53.8915 78.0926 54.4991 78.1897 55.0912C78.2867 55.6833 78.5591 56.2327 78.9716 56.6684C79.384 57.1041 79.9177 57.4061 80.5035 57.5354C81.0894 57.6648 81.7006 57.6154 82.2582 57.3938C82.8157 57.1722 83.294 56.7885 83.6313 56.2923C83.9686 55.7961 84.1493 55.2102 84.1502 54.6102V54.6102Z" fill="black"/>
<path d="M64.6103 54.6196C64.6036 55.9218 64.08 57.168 63.1545 58.0842C62.229 59.0003 60.9775 59.5112 59.6753 59.5046C58.3731 59.498 57.1268 58.9743 56.2107 58.0488C55.2946 57.1233 54.7836 55.8718 54.7903 54.5696C54.784 53.927 54.9092 53.2899 55.1584 52.6975C55.4075 52.1051 55.7752 51.57 56.2389 51.1251C56.7026 50.6801 57.2524 50.3347 57.8546 50.1102C58.4567 49.8857 59.0985 49.7868 59.7403 49.8196C60.382 49.7889 61.0232 49.8914 61.6233 50.1208C62.2234 50.3502 62.7695 50.7015 63.227 51.1525C63.6846 51.6035 64.0438 52.1444 64.2818 52.7411C64.5199 53.3379 64.6317 53.9775 64.6103 54.6196V54.6196ZM56.8603 54.6196C56.8469 55.0029 56.9098 55.3851 57.0452 55.744C57.1806 56.1029 57.3858 56.4313 57.649 56.7104C57.9122 56.9894 58.2282 57.2134 58.5785 57.3695C58.9289 57.5255 59.3068 57.6106 59.6903 57.6196C60.0771 57.6202 60.4599 57.5418 60.8154 57.3892C61.1708 57.2366 61.4913 57.0129 61.7572 56.732C62.0231 56.4511 62.2289 56.1189 62.3618 55.7556C62.4947 55.3924 62.5521 55.0058 62.5303 54.6196C62.5357 53.8503 62.2372 53.11 61.6998 52.5594C61.1624 52.0089 60.4295 51.6927 59.6603 51.6796C58.9008 51.7031 58.1811 52.0249 57.6571 52.5751C57.133 53.1253 56.8468 53.8599 56.8603 54.6196V54.6196Z" fill="black"/>
<path d="M97.27 51.1103L96.09 52.5303C95.8 52.3503 95.57 52.2103 95.33 52.0803C94.8036 51.734 94.177 51.5726 93.5488 51.6214C92.9206 51.6703 92.3265 51.9267 91.86 52.3503C91.4039 52.8268 91.0981 53.4269 90.9807 54.076C90.8633 54.725 90.9396 55.3943 91.2 56.0003C91.4676 56.5689 91.9158 57.0332 92.4746 57.3207C93.0335 57.6083 93.6717 57.7031 94.29 57.5903C95.52 57.4503 95.79 57.1303 95.71 55.7403C95.4 55.7403 95.06 55.6903 94.71 55.6803H93.71V53.9603H94.35H97.61C97.61 55.2603 97.61 56.4903 97.61 57.7203C97.604 57.8211 97.5768 57.9194 97.5303 58.009C97.4838 58.0986 97.4189 58.1774 97.34 58.2403C94.45 60.4603 89.99 59.6603 88.98 56.1103C88.6714 55.0739 88.7128 53.9648 89.0978 52.9544C89.4829 51.944 90.19 51.0885 91.11 50.5203C92.0778 49.9906 93.1824 49.7637 94.2806 49.8689C95.3789 49.974 96.4203 50.4065 97.27 51.1103V51.1103Z" fill="black"/>
<path d="M12.6198 51.7305V53.6505H16.8898V55.4505H12.6498V57.4505H17.5298V59.2005H10.5898V49.9805H17.4998V51.7005L12.6198 51.7305Z" fill="black"/>
<path d="M39.6502 50.0295V59.2195H37.7702V55.5895H33.8802V59.1895H31.9502V50.0195H33.8002V53.5795H37.6902V50.0295H39.6502Z" fill="black"/>
<path d="M27.7205 56.5502L28.8405 57.6702C27.6205 59.6702 24.2905 60.0302 22.2705 58.5002C21.7451 58.0909 21.308 57.5794 20.9858 56.9966C20.6635 56.4138 20.4626 55.7717 20.3953 55.1091C20.3281 54.4465 20.3957 53.7771 20.5943 53.1414C20.7928 52.5057 21.1181 51.9168 21.5505 51.4102C22.012 50.9147 22.5682 50.5169 23.1863 50.2402C23.8044 49.9636 24.4717 49.8139 25.1487 49.7999C25.8258 49.7859 26.4987 49.908 27.1277 50.1588C27.7566 50.4096 28.3289 50.7842 28.8105 51.2602L27.6605 52.6402C25.5805 51.3302 24.2005 51.3402 23.1505 52.6402C22.7077 53.2129 22.4675 53.9163 22.4675 54.6402C22.4675 55.3641 22.7077 56.0675 23.1505 56.6402C24.2805 57.9102 25.6205 57.9102 27.7205 56.5502Z" fill="black"/>
<path d="M0.160156 50.0098H7.68016V51.7598H4.93016V59.1997H2.93016V51.8297H0.160156V50.0098Z" fill="black"/>
<path d="M99.7002 50.0705C101.77 49.7505 101.77 49.7505 102.7 51.3205L104.15 53.7104C104.668 52.9816 105.126 52.2125 105.52 51.4104C106.09 49.9404 107.16 49.7404 108.64 50.0304C108.04 51.0304 107.52 51.9804 106.84 52.8604C106.15 53.6513 105.638 54.5809 105.338 55.5867C105.038 56.5924 104.957 57.6508 105.1 58.6904C105.118 58.87 105.118 59.0509 105.1 59.2304H103.1C104.18 55.3704 101.19 53.0105 99.7002 50.0705Z" fill="black"/>
<path d="M67.71 59.2203V50.0303H69.59V57.4303H74.28V59.2203H67.71Z" fill="black"/>
</svg>
