<svg id="Layer_1" data-name="Layer 1" xmlns="http://www.w3.org/2000/svg" viewBox="0 0 150 100"><defs><style>.cls-1{fill:none;}.cls-2{fill:#fff;}</style></defs><path class="cls-1" d="M43.93,44.93l-2,7.52c-.13.6.44,1.35.7,2,.6-.39,1.58-.65,1.75-1.18.85-2.64,1.48-5.34,2.29-8.39l-.87-1.49C45.15,43.91,44.15,44.29,43.93,44.93Z"/><path class="cls-1" d="M63.33,44a1.78,1.78,0,0,0-1.55.82c-.87,2.91-1.57,5.86-2.33,8.79l.8.75c.75-.62,1.9-1.1,2.19-1.89a51.25,51.25,0,0,0,1.84-7A1.79,1.79,0,0,0,63.33,44Z"/><path class="cls-1" d="M139.14,49.4c2.73.43,3.43-.61,3.48-5.14C139.92,43.53,139.92,43.53,139.14,49.4Z"/><path class="cls-1" d="M26.07,44.73,24,52.52c-.12.57.51,1.3.79,2,.59-.41,1.54-.7,1.71-1.25.84-2.64,1.48-5.35,2.28-8.38l-.95-1.46C27.21,43.83,26.26,44.16,26.07,44.73Z"/><path class="cls-2" d="M80.81,51.05C83.3,49.32,83.36,49,82.75,48,83.36,49,83.3,49.33,80.81,51.05Z"/><path d="M144.26,41.74c-3.15-.16-6.32,0-9.61,0-1.25,4.7-2.46,9.27-3.72,14H137c.5-1.41,1-2.71,1.43-4h.59c.42,1.31.83,2.63,1.27,4h6.39c-1.09-2.87-1.16-4.93,1.11-7.22C150.45,45.85,148.25,41.93,144.26,41.74Zm-5.12,7.66c.78-5.87.78-5.87,3.48-5.14C142.57,48.79,141.87,49.83,139.14,49.4Z"/><path d="M64.77,41.75c-2.16,0-4.34,0-6.48.14a2.53,2.53,0,0,0-1.9,1.27c-1.19,4.11-2.2,8.27-3.31,12.63h8a8.62,8.62,0,0,0,8.72-8.94C69.75,43.74,67.84,41.79,64.77,41.75Zm-.49,3.66a51.25,51.25,0,0,1-1.84,7c-.29.79-1.44,1.27-2.19,1.89l-.8-.75c.76-2.93,1.46-5.88,2.33-8.79A1.78,1.78,0,0,1,63.33,44,1.79,1.79,0,0,1,64.28,45.41Z"/><path d="M48.11,41.83A9,9,0,0,0,36.67,50c0,3.11,1.24,4.88,4.19,5.82,5,1.6,11-2.81,11.19-8.29A5.3,5.3,0,0,0,48.11,41.83ZM44.38,53.3c-.17.53-1.15.79-1.75,1.18-.26-.68-.83-1.43-.7-2a66.58,66.58,0,0,1,2-7.52c.22-.64,1.22-1,1.87-1.51l.87,1.49C45.86,48,45.23,50.66,44.38,53.3Z"/><path d="M41.93,52.45l2-7.52A66.58,66.58,0,0,0,41.93,52.45Z"/><path d="M30.18,41.83A9,9,0,0,0,18.76,50c0,3.14,1.23,4.88,4.18,5.8,5.07,1.59,11-2.77,11.21-8.29A5.31,5.31,0,0,0,30.18,41.83Zm-3.69,11.4c-.17.55-1.12.84-1.71,1.25-.28-.66-.91-1.39-.79-2l2.08-7.79c.19-.57,1.14-.9,1.75-1.34l.95,1.46C28,47.88,27.33,50.59,26.49,53.23Z"/><path d="M5.91,54.11c.69-2.65,1.26-5,1.88-7.26,1-3.84,1.7-4.14,5.84-2.87-.05-.72-.28-1.67-.76-1.82a9.49,9.49,0,0,0-9.59,2,7.86,7.86,0,0,0-2.2,8.68,5,5,0,0,0,3.46,2.76,79.65,79.65,0,0,0,9.79.14c.61-2.48,1.19-4.79,1.78-7.2H10.78C8.76,50.15,10.57,54.29,5.91,54.11Z"/><path d="M127.61,41.11c-2.35.64-5,.55-5.91,1.76-3,3.92-5.26,8.31-7.81,12.52l.41.61a8.69,8.69,0,0,0,2.38-1.26c1.88-2,5.56-1.5,6.61.94h5.58C128.46,51,128.06,46.38,127.61,41.11ZM118.82,51.4l.38-.63,2.54-4.12c.3,1.92.49,3.17.73,4.75Z"/><path d="M113.23,43.89c1.42.21,2.54-.13,2.1-2.09H104.26c-1.24,4.69-2.43,9.22-3.68,14,3.7,0,7,.07,10.19-.07.6,0,1.16-.92,1.73-1.42l-.52-.76h-4.45c.39-2.12.45-4.13,3.32-3.76.47.06,1.08-1,2-1.92l-3.44-.38C109.1,44.45,110.5,43.49,113.23,43.89Z"/><path d="M95.15,46.53c-.56-1.62-1.11-3.18-1.62-4.63H86.85c1.93,4.61,3.57,9,.83,14a40,40,0,0,1,4,0c2,.24,3.25-.31,3.45-2.57.26-2.9,1.94-5.12,3.83-7.21,1.19-1.31,2.28-2.72,3.53-4.24C98.31,41,97.85,45.28,95.15,46.53Z"/><path d="M90.49,38.33c2.63-.42,6.36,1.5,9.14-2.63-5.52,0-10.5-.18-15.44.11-1.44.09-3.85,1.37-4,2.38-.43,2.72.13,5.59.29,8.4l.79-.07,5.31-5.65C87.94,41.2,89.1,40.12,90.49,38.33Z"/><path d="M68.77,60.27c3.55-.38,5.56-3.3,7.43-5.8.66-.88-.85-3.39-1.55-5.75Z"/><path d="M82.75,48l-.17-.27-1.74,1.15,1.74-1.15Z"/><path d="M82.75,48l-.17-.27-1.74,1.15c-.73-.93-1.33-1.7-2-2.56l-3.64,1.83,2.6,4.94,1.47-1,.43-.28.76-.52.34-.23C83.3,49.33,83.36,49,82.75,48Z"/><path d="M77.9,39c-.81.43-1.6.84-2.36,1.27s-1.51.9-2.37,1.41c.47.73.85,1.31,1.21,1.88C78.45,41.61,78.45,41.61,77.9,39Z"/></svg>